<?xml version="1.0" encoding="UTF-8"?>
<svg width="256px" height="256px" viewBox="0 0 256 256" version="1.1" xmlns="http://www.w3.org/2000/svg" xmlns:xlink="http://www.w3.org/1999/xlink">
    <!-- Generator: Sketch 49.1 (51147) - http://www.bohemiancoding.com/sketch -->
    <title>designer</title>
    <desc>Created with Sketch.</desc>
    <defs></defs>
    <g id="designer" stroke="none" stroke-width="1" fill="none" fill-rule="evenodd">
        <g id="Designer" transform="translate(22.000000, 22.000000)">
            <polygon id="Fill-295" fill="#D8C6A5" points="96 100 117 100 117 78 96 78"></polygon>
            <path d="M136.903458,51.8794005 C136.494237,51.8794005 136.102739,52.0955037 135.741852,52.4795024 L135.656463,52.082205 C135.603297,51.8278682 135.551741,51.5718691 135.49213,51.3208569 C135.430908,51.0648578 135.361631,50.8155079 135.292353,50.5661581 C135.231131,50.3317693 135.173132,50.0973805 135.105465,49.864654 C135.029743,49.6020055 134.944355,49.3460064 134.862189,49.0866826 C134.7913,48.8705794 134.728467,48.6528139 134.655967,48.4400354 C134.562523,48.1690753 134.462635,47.9031021 134.362746,47.637129 C134.287024,47.4409738 134.220969,47.2431563 134.142025,47.0486634 C134.035692,46.7727163 133.91647,46.5034185 133.800471,46.2291337 C133.723138,46.0496018 133.650638,45.8667453 133.571694,45.6922004 C133.447639,45.4129287 133.310695,45.1386439 133.178585,44.8660214 C133.099641,44.6981259 133.022308,44.5318926 132.93853,44.3706464 C132.796753,44.083063 132.643698,43.8054535 132.490643,43.5261817 L132.255422,43.0873261 C132.091089,42.7980803 131.91709,42.5138215 131.744702,42.231225 L131.514314,41.8472263 C131.332259,41.5546559 131.140538,41.2703971 130.948816,40.984476 L130.723262,40.6486849 C130.520263,40.3544521 130.310819,40.068531 130.096542,39.7826099 L129.879043,39.4900394 C129.6551,39.1991313 129.423101,38.9132102 129.191102,38.6306137 L128.983269,38.3762769 C128.741604,38.0886935 128.491883,37.806097 128.238939,37.5268252 L128.045607,37.3140467 C127.784608,37.0264633 127.51072,36.7471915 127.236832,36.4712443 L127.062833,36.2950371 C126.776057,36.014103 126.486058,35.7398182 126.186392,35.4688581 L126.038171,35.3325469 C125.73045,35.0565997 125.416285,34.7889643 125.094064,34.5246535 L124.970009,34.4199265 C124.641343,34.1506287 124.307845,33.8896426 123.96468,33.6386305 L123.861569,33.5555138 C123.511959,33.2995147 123.155905,33.0501649 122.796629,32.8074644 L122.716074,32.7526074 C122.34552,32.5065823 121.973355,32.2705311 121.593134,32.0411293 L121.52869,31.999571 C121.142025,31.7701692 120.748916,31.549079 120.354195,31.3346382 L120.309084,31.3097032 C119.906308,31.0952624 119.497088,30.8891332 119.083034,30.6913157 L119.054034,30.6796793 C118.635147,30.4801995 118.209815,30.2956806 117.781262,30.1161488 L117.766762,30.1094994 C115.155162,29.0289836 112.359896,28.3407781 109.443797,28.1030646 L109.440575,28.1014023 C108.955633,28.0615063 108.469079,28.0382336 107.980915,28.0232726 L107.971248,28.0232726 C107.707027,28.014961 107.442806,28 107.175362,28 C93.2940885,28 81.6812492,38.2698877 78.7039286,52.037322 C78.5057628,51.9359198 78.3027637,51.8794005 78.0933201,51.8794005 C76.3871607,51.8794005 75,55.5182454 75,60.0082044 C75,64.4965011 76.3871607,68.1370083 78.0933201,68.1370083 C78.4558186,68.1370083 78.7989838,67.9674505 79.1212046,67.6682307 C82.6575784,80.5679277 93.8756971,90 107.175362,90 C107.442806,90 107.707027,89.9833767 107.971248,89.9767274 L107.980915,89.9767274 C108.469079,89.965091 108.955633,89.9368314 109.440575,89.9002601 L109.443797,89.8969354 C112.359896,89.6592219 115.155162,88.9710164 117.766762,87.8905006 L117.781262,87.8855136 C118.209815,87.7059817 118.635147,87.5198005 119.054034,87.321983 L119.083034,87.3086843 C119.497088,87.1125292 119.906308,86.9064 120.309084,86.6919591 L120.354195,86.6653618 C120.748916,86.450921 121.142025,86.2298308 121.52869,86.000429 L121.593134,85.960533 C121.973355,85.7311312 122.34552,85.4934177 122.716074,85.2490549 L122.796629,85.1941979 C123.155905,84.9514974 123.511959,84.7021476 123.861569,84.4444862 L123.96468,84.3630319 C124.307845,84.1103574 124.641343,83.8510336 124.970009,83.5817358 L125.094064,83.4770089 C125.416285,83.2126981 125.73045,82.9450626 126.038171,82.6691155 L126.186392,82.5328042 C126.486058,82.2601818 126.776057,81.985897 127.062833,81.7033005 L127.236832,81.5287557 C127.51072,81.2511462 127.784608,80.9735367 128.045607,80.6876156 L128.238939,80.4764995 C128.491883,80.1955653 128.741604,79.9146312 128.983269,79.6237231 L129.191102,79.3710486 C129.423101,79.0884522 129.6551,78.8041934 129.879043,78.5099606 L130.096542,78.2173901 C130.310819,77.9331314 130.520263,77.6455479 130.723262,77.3529775 L130.948816,77.0171864 C131.140538,76.7312652 131.332259,76.4453441 131.514314,76.1527737 L131.744702,75.7704373 C131.91709,75.4878408 132.091089,75.2019197 132.255422,74.9126739 L132.490643,74.4738183 C132.643698,74.1945465 132.796753,73.916937 132.93853,73.6326782 C133.022308,73.4681074 133.099641,73.3002118 133.178585,73.1356409 C133.310695,72.8630185 133.447639,72.5870713 133.571694,72.3077996 C133.650638,72.1332547 133.723138,71.9520605 133.800471,71.769204 C133.91647,71.4965815 134.035692,71.2272837 134.142025,70.9513366 C134.220969,70.7568437 134.287024,70.5590262 134.362746,70.3645333 C134.462635,70.0968979 134.562523,69.8309247 134.655967,69.5616269 C134.728467,69.3471861 134.7913,69.1294206 134.862189,68.9133174 C134.944355,68.6539936 135.029743,68.3979945 135.105465,68.1370083 C135.173132,67.9026195 135.231131,67.6665684 135.292353,67.4338419 L135.384186,67.0847521 C135.833684,67.7513473 136.35246,68.1370083 136.903458,68.1370083 C138.61445,68.1370083 140,64.4965011 140,60.0082044 C140,55.5182454 138.61445,51.8794005 136.903458,51.8794005" id="Fill-296" fill="#F7E0B8"></path>
            <path d="M174,167.660358 C174,141.293789 163.990547,114.745586 150.174183,106.373936 C141.985216,100.848978 127.340773,97 106.005639,97 C84.7720009,97 68.9659903,100.814302 60.7206368,106.296329 C46.8108319,114.575511 38,141.209577 38,167.660358 L38,175 L62.6925619,175 L62.6925619,167.660358 C62.6925619,150.249968 68.1749648,139.404801 71.6016679,133.947542 L71.6016679,175 L140.101899,175 L140.101899,135.435285 C143.879811,141.272323 149.307438,151.711292 149.307438,167.660358 L149.307438,175 L174,175 L174,167.660358" id="Fill-297" fill="#161C1A"></path>
            <path d="M133.424098,50.0167441 C133.332081,49.6757014 133.214679,49.3508988 133.10997,49.0179761 C132.960838,48.5259002 132.821226,48.0322003 132.649883,47.5531164 C132.495992,47.129249 132.311957,46.7232458 132.143788,46.3091225 C131.991483,45.9372235 131.85187,45.5588285 131.685287,45.1950496 C131.469522,44.7192138 131.220441,44.2596181 130.980878,43.7983984 C130.836506,43.5174441 130.70324,43.2267458 130.549349,42.9506636 C130.260605,42.4374755 129.94489,41.9437756 129.632348,41.4516996 C129.502255,41.247074 129.380094,41.0310802 129.24524,40.8280786 C128.885104,40.2937784 128.497996,39.7822143 128.107715,39.2738982 L127.785655,38.8386627 C127.346192,38.2913703 126.886106,37.7684381 126.414913,37.252002 L126.178524,36.9872879 C125.666082,36.4399955 125.128257,35.9235594 124.577739,35.4201154 L124.438126,35.2869463 C123.851119,34.75427 123.2419,34.255698 122.61523,33.7749902 L122.570808,33.7392619 C117.835087,30.1372011 112.03006,28 105.742735,28 C90.26002,28 77.6393621,40.871927 77,57 C78.8213093,54.879039 79.9207582,51.8843591 81.6833667,49.8023744 C84.6342685,46.3204906 88.3895291,43.8942152 91.6783567,40.7891023 C93.9518203,38.6421571 97.7816466,38.2864983 100.007515,40.7891023 C101.747912,42.7427899 104.016617,44.621773 106.52647,46.0655205 L106.528056,46.0671445 C107.356212,46.5413563 108.204993,46.9619757 109.074399,47.3273786 L109.353624,47.4410595 C109.616984,47.5482444 109.888277,47.6554292 110.156396,47.747998 L110.308701,47.7999664 C110.786239,47.9623677 111.263778,48.1069049 111.746075,48.2270818 C111.949148,48.2790502 112.153808,48.3261466 112.360053,48.369995 C112.555194,48.4122193 112.750334,48.4544436 112.947061,48.4869239 C113.313544,48.5518844 113.680027,48.5989808 114.04651,48.6347091 C114.203574,48.6493252 114.360638,48.6590693 114.517702,48.6688134 C114.820725,48.6850535 115.126921,48.6947976 115.43153,48.6915495 L115.783734,48.6899255 C116.186707,48.6785574 116.586506,48.6363331 116.987892,48.5843647 L117.333751,48.5275242 C117.704993,48.4658117 118.074649,48.3846111 118.439546,48.2839223 L118.599783,48.2433219 C119.010688,48.126393 119.413661,47.9737358 119.811874,47.8032144 L120.106964,47.6700454 C120.51311,47.4816599 120.916082,47.2754102 121.311122,47.0318083 C124.112892,45.2892423 127.690464,46.4487876 129.367401,49.1949936 C130.149549,50.4763398 132.089846,51.5936607 134,52.5696926 C133.841349,51.7057176 133.649382,50.8514868 133.424098,50.0167441" id="Fill-298" fill="#48301D"></path>
            <path d="M139,43 C138.961164,42.7520226 138.909383,42.5057094 138.828475,42.2494106 C138.302571,40.516897 136.907714,35.3676205 136.907714,33.4886505 C136.907714,18.8613102 123.598316,7 107.18528,7 C90.7657708,7 77.4596091,18.8613102 77.4596091,33.4886505 C77.4596091,35.1362859 76.0162069,40.1740558 75,43 L139,43" id="Fill-299" fill="#DB944E"></path>
            <path d="M106.503159,16 C110.632975,16 114,12.4077506 114,8 C114,3.59393429 110.632975,0 106.503159,0 C102.370183,0 99,3.59393429 99,8 C99,12.4077506 102.370183,16 106.503159,16" id="Fill-300" fill="#DB944E"></path>
            <path d="M89,11.8656922 C91.5967883,10.1673755 94.526619,8.84915833 97.6826671,8 C97.8884622,8.52728689 98,9.10147966 98,9.70155155 L98,30.3660217 C98,32.9134967 95.9766102,35 93.5007855,35 C91.0233898,35 89,32.9134967 89,30.3660217 L89,11.8656922" id="Fill-301" fill="#B78044"></path>
            <path d="M115.398953,8 C118.505759,8.77093245 121.403665,10.0080875 124,11.6248811 L124,31.2295433 C124,33.8520457 121.975393,36 119.498429,36 C117.023037,36 115,33.8520457 115,31.2295433 L115,9.95647003 C115,9.26046622 115.141361,8.59776403 115.398953,8" id="Fill-302" fill="#B78044"></path>
            <path d="M140,42.4991843 C140,43.8776509 138.933152,45 137.619615,45 L75.3787835,45 C74.0668484,45 73,43.8776509 73,42.4991843 C73,41.1190865 74.0668484,40 75.3787835,40 L137.619615,40 C138.933152,40 140,41.1190865 140,42.4991843" id="Fill-303" fill="#B78044"></path>
            <path d="M93,97.5334234 L105.968652,141 L118,97.4607589 C118,97.4607589 116.122257,97 106.606583,97 C97.0909091,97 93,97.5334234 93,97.5334234" id="Fill-304" fill="#FFFFFE"></path>
            <path d="M114,97.0008135 C114,99.2119178 110.870029,101 107.001697,101 C103.133366,101 100,99.2119178 100,97.0008135 C100,94.7913362 103.133366,93 107.001697,93 C110.870029,93 114,94.7913362 114,97.0008135" id="Fill-305" fill="#2A888E"></path>
            <polyline id="Fill-306" fill="#2A888E" points="104.716869 98 102 125.684595 106.072321 140 110 125.762208 108.572973 98.0809153 104.716869 98"></polyline>
            <polygon id="Fill-307" fill="#FFFFFE" points="116 150 133 150 133 141 116 141"></polygon>
            <polyline id="Fill-308" fill="#091210" points="118.327049 98 129 108.891898 106 141 118.327049 98"></polyline>
            <polyline id="Fill-309" fill="#091210" points="93.3889961 98 84 109.153686 107 142 93.3889961 98"></polyline>
            <polygon id="Fill-310" fill="#091210" points="106 176 108 176 108 141 106 141"></polygon>
            <polyline id="Fill-311" fill="#E6E8E3" points="212 212 0 212 23.7380338 162 188.261966 162 212 212"></polyline>
            <path d="M63.4481357,203 C63.254736,203 63.0873398,202.917763 63.0304575,202.777961 L63.0223315,202.606908 L62.6160298,202.606908 L62.5932769,202.692434 C62.4957645,202.878289 62.2487331,203 62.0049521,203 C61.9708227,203 61.9366934,202.998355 61.902564,202.993421 L44.1000493,199.842105 C43.8725204,199.802632 43.7620063,199.639803 43.8140129,199.458882 L25.2460258,199.458882 C21.7843354,199.360197 23.3559104,196.998355 23.3559104,196.998355 L27.3474181,196.998355 L33.3899368,177.996711 L33.438693,177.904605 C32.5009487,177.731908 31.9776322,177.021382 32.2490417,176.169408 C32.5123252,175.324013 33.4630711,174.621711 34.491827,174.440789 L34.7892398,173.476974 L34.2691737,173.164474 L34.1992898,173.108553 C33.9863877,172.875 33.9278803,172.565789 34.0286431,172.235197 C34.1326563,171.90625 34.3829382,171.597039 34.7421088,171.360197 C35.1094056,171.123355 35.5319593,171 35.9155081,171 C36.3039325,171 36.6517268,171.123355 36.8695045,171.363487 C37.0141479,171.514803 36.936138,171.764803 36.7021082,171.917763 C36.5850933,171.995066 36.4502011,172.032895 36.3283106,172.032895 C36.2047949,172.032895 36.0926557,171.995066 36.0227718,171.917763 C35.9415114,171.830592 35.8163705,171.786184 35.6766027,171.786184 C35.5368349,171.786184 35.3824403,171.830592 35.2491734,171.917763 L34.9907655,172.235197 L35.0297704,172.523026 L35.6977304,172.924342 L35.8228713,173.258224 L35.4604502,174.440789 C36.3770668,174.621711 36.8938826,175.324013 36.6387251,176.169408 C36.3819425,177.021382 35.4165696,177.730263 34.3699365,177.904605 L34.3650609,177.996711 L28.376174,196.998355 L58.2507245,196.998355 L58.9365617,194.146382 L60.9810718,194.146382 L60.9566937,194.245066 L67.342131,194.245066 L66.7375541,196.998355 L73.166872,196.998355 C78.8242167,196.998355 77.9514807,198.207237 77.9514807,198.207237 L76.6139355,198.223684 C76.6854446,198.414474 76.5359256,198.639803 76.2661413,198.730263 L63.6837906,202.960526 C63.6041555,202.988487 63.5245204,203 63.4481357,203 M46.6938793,199.458882 L62.138219,202.192434 L62.4730116,198.207237 L58.8179216,199.458882 L46.6938793,199.458882 M75.3170205,198.241776 L65.014835,198.376645 L63.7000427,202.148026 L75.3170205,198.241776 M34.7486097,175.179276 C34.0773993,175.179276 33.391562,175.623355 33.2192901,176.169408 C33.0486434,176.715461 33.4614459,177.159539 34.1359067,177.159539 C34.8136179,177.159539 35.4994552,176.715461 35.6652263,176.169408 C35.8326226,175.623355 35.4214453,175.179276 34.7486097,175.179276" id="Fill-312" fill="#757D78"></path>
            <polyline id="Fill-313" fill="#858885" points="67.6318542 194 60 194 60.0227771 193.900332 61.5093639 187 62.7970305 187 62.769698 187.134551 67.6880378 187.134551 67.7138519 187 69 187 67.6318542 194"></polyline>
            <polyline id="Fill-314" fill="#757D78" points="67.8881343 187 63 187 63.0271647 186.867227 66.3201283 171 66.3065459 171.067206 70.9864177 171.067206 70.9984909 171 71 171 67.9137899 186.867227 67.8881343 187"></polyline>
            <polyline id="Fill-315" fill="#858885" points="71.9161117 172 67.0824713 172 67.0964999 171.923029 67.8384583 167.864205 65 166 76 166 72.5349299 168.376721 71.9285816 171.923029 71.9161117 172"></polyline>
            <path d="M183.723578,197.845118 L181.693957,192.93266 L187.375304,192.93266 L189.46064,197.845118 L183.723578,197.845118 Z M177.335445,197.845118 L175.367907,192.93266 L181.047662,192.93266 L183.072508,197.845118 L177.335445,197.845118 Z M170.944129,197.845118 L169.040265,192.93266 L174.721612,192.93266 L176.682783,197.845118 L170.944129,197.845118 Z M158.164679,197.845118 L156.389756,192.93266 L162.067919,192.93266 L163.904925,197.845118 L158.164679,197.845118 Z M154.442912,187.47138 L160.060584,187.47138 L161.88008,192.422559 L156.208284,192.422559 L154.442912,187.47138 Z M152.545415,182.045455 L158.097821,182.045455 L159.872745,186.961279 L154.264623,186.961279 L152.545415,182.045455 Z M150.690898,176.666667 L156.184406,176.666667 L157.917941,181.538721 L152.367127,181.538721 L150.690898,176.666667 Z M148.853892,171.245791 L154.282134,171.245791 L156.004526,176.159933 L150.515794,176.159933 L148.853892,171.245791 Z M166.375492,171.245791 L168.222049,176.159933 L162.739684,176.159933 L160.94725,171.245791 L166.375492,171.245791 Z M172.421375,171.245791 L174.333198,176.159933 L168.84765,176.159933 L166.994725,171.245791 L172.421375,171.245791 Z M178.468849,171.245791 L180.445939,176.159933 L174.957207,176.159933 L173.040608,171.245791 L178.468849,171.245791 Z M182.634746,181.538721 L177.087115,181.538721 L175.15619,176.666667 L180.648105,176.666667 L182.634746,181.538721 Z M184.871309,186.961279 L179.260004,186.961279 L177.28769,182.045455 L182.84328,182.045455 L184.871309,186.961279 Z M173.209345,187.47138 L178.82861,187.47138 L180.839129,192.422559 L175.167333,192.422559 L173.209345,187.47138 Z M166.95652,187.47138 L172.572601,187.47138 L174.519446,192.422559 L168.84765,192.422559 L166.95652,187.47138 Z M164.283788,182.045455 L166.123978,186.961279 L160.514264,186.961279 L158.731381,182.045455 L164.283788,182.045455 Z M164.095949,181.538721 L158.548318,181.538721 L156.808415,176.666667 L162.300331,176.666667 L164.095949,181.538721 Z M170.273956,181.538721 L164.726325,181.538721 L162.92434,176.666667 L168.417848,176.666667 L170.273956,181.538721 Z M170.905924,181.538721 L169.040265,176.666667 L174.532181,176.666667 L176.455147,181.538721 L170.905924,181.538721 Z M172.375211,186.961279 L166.762314,186.961279 L164.915756,182.045455 L170.471347,182.045455 L172.375211,186.961279 Z M195.910856,197.845118 L190.113303,197.845118 L188.018416,192.93266 L193.448249,192.93266 L193.357513,192.422559 L187.803515,192.422559 L185.722954,187.47138 L190.871028,187.47138 L190.783476,186.961279 L185.509645,186.961279 L183.473656,182.045455 L188.801611,182.045455 L188.714058,181.538721 L183.265123,181.538721 L181.275298,176.666667 L186.354922,176.666667 L186.270554,176.159933 L181.066764,176.159933 L179.086491,171.245791 L183.938479,171.245791 L183.855703,170.737374 L178.885917,170.737374 L177.395936,167 L176.824458,167.104377 L178.266683,170.737374 L172.843217,170.737374 L171.404176,167 L170.832699,167.104377 L172.225576,170.737374 L166.805294,170.737374 L165.412417,167 L164.837755,167.104377 L166.18606,170.737374 L160.762594,170.737374 L159.420657,167 L158.845995,167.104377 L160.146545,170.737374 L154.723079,170.737374 L153.428897,167 L152.851052,167.104377 L154.105437,170.737374 L148.683563,170.737374 L147.438729,167 L146.859292,167.104377 L148.065922,170.737374 L145,170.737374 L145.039796,171.245791 L148.237843,171.245791 L149.894968,176.159933 L146.964355,176.159933 L147.004151,176.666667 L150.065297,176.666667 L151.738342,181.538721 L148.962139,181.538721 L149.005119,182.045455 L151.910263,182.045455 L153.626288,186.961279 L150.577876,186.961279 L150.62404,187.47138 L153.804576,187.47138 L155.560397,192.422559 L152.703009,192.422559 L152.750765,192.93266 L155.743461,192.93266 L157.515201,197.845118 L154.802672,197.845118 L154.852019,198.353535 L157.695081,198.353535 L159.396779,203 L160.017604,202.895623 L158.350927,198.353535 L164.092765,198.353535 L165.850178,203 L166.474187,202.895623 L164.747019,198.353535 L170.490449,198.353535 L172.308353,203 L172.927586,202.895623 L171.141519,198.353535 L176.884949,198.353535 L178.764935,203 L179.382577,202.895623 L177.53602,198.353535 L183.281041,198.353535 L185.218334,203 L185.837568,202.895623 L183.936887,198.353535 L189.677133,198.353535 L191.676509,203 L192.292559,202.895623 L190.329796,198.353535 L196,198.353535 L195.910856,197.845118 Z" id="Fill-316" fill="#6E7371"></path>
            <path d="M139.935364,170.5 C140.557408,173.536859 136.619963,176 131.129035,176 C125.641363,176 121.107928,173.536859 121.002082,170.5 C120.896237,167.461538 124.838567,165 129.814925,165 C134.786397,165 139.316576,167.461538 139.935364,170.5" id="Fill-317" fill="#D77339"></path>
            <path d="M143.9322,184.502404 C144.569665,187.5365 140.640479,190 135.157967,190 C129.67071,190 125.126205,187.5365 125.002825,184.502404 C124.879444,181.4635 128.813376,179 133.784967,179 C138.758139,179 143.301063,181.4635 143.9322,184.502404" id="Fill-318" fill="#D77339"></path>
            <path d="M147.926312,197.501602 C148.607769,200.537576 144.486656,203 138.714508,203 C132.945597,203 128.147884,200.537576 128.003823,197.501602 C127.856525,194.46723 131.984112,192 137.218865,192 C142.455235,192 147.246474,194.46723 147.926312,197.501602" id="Fill-319" fill="#D77339"></path>
            <polyline id="Fill-320" fill="#A8ACAA" points="157 182.39661 181.189844 198 182 196.601753 157.810156 181"></polyline>
            <polyline id="Fill-321" fill="#A8ACAA" points="159 172.392368 183.167875 188 184 186.60927 159.832125 171"></polyline>
            <polyline id="Fill-322" fill="#A8ACAA" points="172.744569 175 169 180.948836 170.255431 182 174 176.052955"></polyline>
            <polyline id="Fill-323" fill="#A8ACAA" points="166.825803 192 163 197.908975 164.175684 199 168 193.089245"></polyline>
            <polyline id="Fill-324" fill="#A8ACAA" points="152.801927 171 149 176.919786 150.198073 178 154 172.078431"></polyline>
            <polyline id="Fill-325" fill="#A8ACAA" points="170.73125 170 167 175.953137 168.267188 177 172 171.046863"></polyline>
            <polyline id="Fill-326" fill="#A8ACAA" points="177.769914 187 174 192.934627 175.230086 194 179 188.065373"></polyline>
            <polyline id="Fill-327" fill="#A8ACAA" points="151 182.46114 159.144078 188 160 186.53886 151.855922 181"></polyline>
            <polyline id="Fill-328" fill="#A8ACAA" points="178 187.474772 186.202434 193 187 191.525228 178.797566 186"></polyline>
            <polygon id="Fill-329" fill="#A8ACAA" points="82 172 108 172 108 170 82 170"></polygon>
            <polygon id="Fill-330" fill="#A8ACAA" points="78 175 104 175 104 173 78 173"></polygon>
            <polygon id="Fill-331" fill="#A8ACAA" points="82 177 109 177 109 175 82 175"></polygon>
            <polygon id="Fill-332" fill="#A8ACAA" points="80 179 107 179 107 177 80 177"></polygon>
            <polygon id="Fill-333" fill="#A8ACAA" points="79 183 106 183 106 181 79 181"></polygon>
            <polygon id="Fill-334" fill="#A8ACAA" points="85 181 96 181 96 179 85 179"></polygon>
            <polygon id="Fill-335" fill="#A8ACAA" points="98 173 109 173 109 171 98 171"></polygon>
            <polygon id="Fill-336" fill="#A8ACAA" points="98 185 109 185 109 183 98 183"></polygon>
            <polygon id="Fill-337" fill="#A8ACAA" points="102 181 113 181 113 179 102 179"></polygon>
            <polygon id="Fill-338" fill="#A8ACAA" points="108 178 119 178 119 176 108 176"></polygon>
            <polygon id="Fill-339" fill="#A8ACAA" points="106 176 117 176 117 174 106 174"></polygon>
            <polygon id="Fill-340" fill="#A8ACAA" points="77 186 88 186 88 184 77 184"></polygon>
            <polygon id="Fill-341" fill="#A8ACAA" points="82 173 93 173 93 171 82 171"></polygon>
            <polygon id="Fill-342" fill="#A8ACAA" points="45 171 58 171 58 169 45 169"></polygon>
            <polygon id="Fill-343" fill="#A8ACAA" points="42 174 55 174 55 172 42 172"></polygon>
            <polygon id="Fill-344" fill="#A8ACAA" points="44 176 57 176 57 174 44 174"></polygon>
            <polygon id="Fill-345" fill="#A8ACAA" points="43 178 56 178 56 176 43 176"></polygon>
            <polygon id="Fill-346" fill="#A8ACAA" points="42 182 55 182 55 180 42 180"></polygon>
            <polygon id="Fill-347" fill="#A8ACAA" points="45 180 50 180 50 178 45 178"></polygon>
            <polygon id="Fill-348" fill="#A8ACAA" points="53 172 58 172 58 170 53 170"></polygon>
            <polygon id="Fill-349" fill="#A8ACAA" points="51 184 56 184 56 182 51 182"></polygon>
            <polygon id="Fill-350" fill="#A8ACAA" points="53 181 58 181 58 179 53 179"></polygon>
            <polygon id="Fill-351" fill="#A8ACAA" points="56 177 61 177 61 175 56 175"></polygon>
            <polygon id="Fill-352" fill="#A8ACAA" points="56 175 61 175 61 173 56 173"></polygon>
            <polygon id="Fill-353" fill="#A8ACAA" points="41 185 46 185 46 183 41 183"></polygon>
            <polygon id="Fill-354" fill="#A8ACAA" points="45 172 50 172 50 170 45 170"></polygon>
            <path d="M113.785589,195.746488 C112.071595,195.85739 110.598217,194.90968 110.515408,193.642706 C110.437286,192.37069 111.687236,191.249905 113.299671,191.145724 C114.902731,191.038183 116.35111,191.984213 116.532353,193.251187 C116.724533,194.523202 115.493332,195.642307 113.785589,195.746488 Z M119.224432,188.956244 L118.069791,188.198412 C117.72293,187.961485 117.227638,187.973247 116.9214,188.221937 L116.333924,188.690751 C115.815195,188.48407 115.268342,188.342921 114.707427,188.258904 L114.532434,187.571646 C114.441812,187.220456 114.049641,186.975127 113.618408,187.002012 L112.213777,187.102832 C111.785669,187.131398 111.437246,187.430498 111.409122,187.791771 L111.357562,188.489111 C110.801334,188.652103 110.26698,188.873908 109.776375,189.152844 L109.073279,188.759645 C108.717043,188.559685 108.218625,188.616816 107.909263,188.894072 L106.887429,189.799774 C106.568692,190.075349 106.540568,190.485352 106.824932,190.750845 L107.429595,191.303676 C107.16398,191.710318 106.959301,192.137123 106.820244,192.572331 L105.842159,192.723561 C105.376552,192.794135 105.017192,193.125162 105.00938,193.484754 L105.000005,194.66099 C104.998443,195.018902 105.357803,195.302879 105.843721,195.312961 L106.918678,195.339846 C107.079609,195.721283 107.306162,196.084236 107.587401,196.427025 L106.918678,197.10252 C106.614003,197.404981 106.654626,197.808262 107.015549,198.040149 L108.210813,198.803022 C108.585798,199.036589 109.160775,199.024827 109.546697,198.777817 L110.398225,198.224986 C110.929454,198.404782 111.491931,198.539209 112.07472,198.619865 L112.285649,199.424747 C112.379395,199.780978 112.845002,200.026308 113.359043,199.997742 L115.032414,199.898602 C115.546455,199.864995 115.941752,199.570936 115.944877,199.207983 L115.962064,198.419905 C116.557352,198.266994 117.11358,198.060313 117.619809,197.808262 L118.547897,198.235068 C118.982254,198.436708 119.541607,198.379577 119.847845,198.100641 L120.822805,197.203341 C121.118106,196.924405 121.063421,196.514402 120.699373,196.25395 L119.946278,195.697758 C120.166582,195.294477 120.319701,194.864311 120.383761,194.424063 L121.31966,194.279554 C121.777454,194.207299 122.066505,193.877953 121.986821,193.518361 L121.725894,192.343805 C121.649335,191.982532 121.241539,191.700236 120.779057,191.688473 L119.861907,191.668309 C119.636916,191.248225 119.352552,190.853345 119.010378,190.488712 L119.457235,189.900594 C119.690038,189.598133 119.583793,189.191492 119.224432,188.956244 Z" id="Fill-355" fill="#343636"></path>
            <path d="M99.6797473,194.057391 C98.3668855,194.132054 97.2661528,193.477937 97.2310763,192.598205 C97.1943295,191.720097 98.1781407,190.944245 99.4091575,190.871205 C100.640174,190.794918 101.725874,191.450659 101.832774,192.328767 C101.948025,193.206875 100.982587,193.98435 99.6797473,194.057391 Z M103.995822,189.35521 L103.133944,188.829318 C102.870035,188.667006 102.492545,188.673499 102.250351,188.84555 L101.791016,189.168551 C101.398494,189.028962 100.982587,188.929952 100.556659,188.87152 L100.436397,188.397568 C100.377936,188.150854 100.080621,187.982049 99.7515705,188.001527 L98.6725518,188.071321 C98.3401606,188.092422 98.0679004,188.295312 98.0411755,188.548519 L97.9843851,189.030585 C97.5534457,189.144204 97.14255,189.2984 96.7583792,189.491552 L96.2272214,189.218867 C95.9616425,189.079279 95.579142,189.12148 95.3352771,189.311385 L94.5335295,189.93791 C94.2846536,190.131061 94.2545881,190.413484 94.4667172,190.595274 L94.9193705,190.97833 C94.7089118,191.260754 94.541881,191.556162 94.4283001,191.856439 L93.6816726,191.961942 C93.3225564,192.012258 93.0419447,192.239495 93.0285823,192.489456 L93.000187,193.30264 C92.9918355,193.5526 93.2640956,193.747375 93.629893,193.75549 L94.4500141,193.774968 C94.5652653,194.039536 94.7306258,194.29112 94.9394142,194.526473 L94.4132673,194.995555 C94.1760836,195.204937 94.1994679,195.482491 94.4717281,195.644803 L95.3686833,196.170694 C95.6459544,196.334629 96.0852453,196.326514 96.38256,196.154463 L97.0406612,195.771406 C97.4448757,195.896387 97.8708041,195.990528 98.3084247,196.045714 L98.4554118,196.602444 C98.5172132,196.847536 98.8646372,197.017963 99.2588298,196.998486 L100.533275,196.930315 C100.925797,196.905968 101.231463,196.703078 101.246496,196.453117 L101.276561,195.907749 C101.729215,195.803869 102.161824,195.657788 102.554347,195.482491 L103.247524,195.779522 C103.576575,195.920734 104.002504,195.880156 104.241357,195.685381 L105.006358,195.065349 C105.240201,194.870574 105.206795,194.588151 104.937876,194.406362 L104.376652,194.024928 C104.557046,193.742505 104.683989,193.445474 104.74579,193.141951 L105.460682,193.041317 C105.814787,192.989377 106.041949,192.76214 105.99351,192.51218 L105.823139,191.698996 C105.77303,191.450659 105.470704,191.254261 105.114928,191.247769 L104.415069,191.231537 C104.25639,190.942622 104.047602,190.671561 103.793715,190.416731 L104.151161,190.007704 C104.336565,189.798322 104.264742,189.519145 103.995822,189.35521 Z" id="Fill-356" fill="#343636"></path>
            <path d="M102.686615,203.05253 C101.378448,203.13044 100.270027,202.476321 100.229096,201.598212 C100.188164,200.718479 101.162331,199.942626 102.396821,199.869586 C103.628037,199.794922 104.716811,200.450664 104.829782,201.328773 C104.952576,202.206883 103.993145,202.979489 102.686615,203.05253 Z M106.97786,198.353589 L106.110115,197.826074 C105.848155,197.667008 105.469949,197.6735 105.229272,197.843928 L104.769204,198.166929 C104.372988,198.027341 103.9604,197.926707 103.531439,197.869898 L103.408645,197.395946 C103.346429,197.150854 103.050086,196.98205 102.71936,197.001527 L101.640409,197.068075 C101.311321,197.090799 101.036262,197.296935 101.010066,197.546896 L100.957674,198.028964 C100.53035,198.142583 100.119399,198.295156 99.7362818,198.489931 L99.2025366,198.215623 C98.9340268,198.079281 98.5525464,198.116613 98.3102327,198.311387 L97.5112522,198.937913 C97.2640267,199.127818 97.2394679,199.413488 97.4523111,199.595278 L97.9041934,199.978335 C97.6962621,200.260758 97.5325366,200.55292 97.419566,200.856444 L96.6697032,200.960324 C96.3127816,201.010641 96.0344483,201.237878 96.0246247,201.487839 L96.0000659,202.302647 C95.9951541,202.550985 96.2653012,202.74576 96.6353208,202.753875 L97.4555856,202.77173 C97.5701934,203.037922 97.7355562,203.287883 97.9500366,203.521613 L97.4277522,203.993941 C97.1903503,204.201701 97.2165464,204.482501 97.4899679,204.644814 L98.3871837,205.170706 C98.6687915,205.333018 99.1059386,205.324902 99.4055562,205.151228 L100.060458,204.768171 C100.463223,204.894775 100.887272,204.990539 101.332605,205.044102 L101.481596,205.600833 C101.545448,205.845925 101.894184,206.017976 102.285488,205.998498 L103.560909,205.928704 C103.952213,205.90598 104.260017,205.70309 104.271478,205.449883 L104.297674,204.904513 C104.751194,204.800634 105.180155,204.657799 105.573096,204.482501 L106.268929,204.77791 C106.598017,204.917498 107.025341,204.87692 107.26438,204.685392 L108.025704,204.062113 C108.256557,203.868961 108.225449,203.588161 107.952027,203.406371 L107.387174,203.021691 C107.567272,202.739267 107.691704,202.442236 107.750645,202.138712 L108.466125,202.036455 C108.818135,201.987761 109.047351,201.762147 108.991684,201.512186 L108.823047,200.697378 C108.769017,200.450664 108.464488,200.254266 108.107566,200.244527 L107.408459,200.228296 C107.244733,199.93938 107.038439,199.666695 106.784664,199.413488 L107.136674,199.006084 C107.316772,198.796701 107.244733,198.515901 106.97786,198.353589 Z" id="Fill-357" fill="#343636"></path>
            <path d="M93.0744961,199.363625 C92.4713542,199.407733 91.9682595,199.042997 91.953967,198.552724 C91.9411038,198.065844 92.3998918,197.634947 92.9687319,197.594232 C93.5390011,197.551821 94.0349496,197.916557 94.0792562,198.405134 C94.1292798,198.89371 93.677638,199.322911 93.0744961,199.363625 Z M95.0997381,196.751099 L94.7038369,196.457614 L94.2965017,196.467792 L94.0821147,196.649312 C93.8991712,196.571276 93.7076522,196.513596 93.5104162,196.484757 L93.4589633,196.220111 C93.4303784,196.084396 93.2974585,195.987698 93.1416707,196.00127 L92.6414345,196.036895 C92.4899344,196.050467 92.3627314,196.162432 92.3470097,196.301541 L92.3184248,196.571276 C92.1197596,196.634044 91.9282406,196.720563 91.7495848,196.829135 L91.5066129,196.676455 L91.0921315,196.725652 L90.7190982,197.076816 L90.6876548,197.439856 L90.8948955,197.653608 C90.7948483,197.809681 90.717669,197.974236 90.6633576,198.140488 L90.3189093,198.20156 C90.1531167,198.227007 90.0230553,198.35424 90.0173383,198.491652 L90.0001873,198.944603 C89.9944703,199.082015 90.120244,199.192284 90.2903243,199.197374 L90.6690746,199.207552 L90.8906078,199.624878 L90.6476359,199.887827 L90.6733623,200.245777 L91.0821268,200.540959 C91.2107589,200.629174 91.4108534,200.625781 91.5480611,200.53078 L91.855349,200.318724 C92.0368633,200.388279 92.2340993,200.439172 92.435623,200.469708 L92.4985098,200.778461 C92.5256655,200.915873 92.6871703,201.010874 92.8658261,200.998999 L93.4518171,200.961677 C93.6319021,200.949802 93.7748268,200.834444 93.781973,200.695335 L93.799124,200.393368 C94.0120816,200.333992 94.2064591,200.255956 94.3908319,200.155866 L94.7081246,200.322117 C94.8581954,200.398457 95.0525729,200.376403 95.1654834,200.269527 L95.522795,199.923452 L95.4970685,199.558717 L95.2398042,199.344964 C95.3269882,199.188891 95.3870166,199.026033 95.41846,198.854692 L95.7486159,198.798709 C95.9101207,198.773262 96.0187434,198.644332 95.9973047,198.505224 L95.9272717,198.052273 C95.9044037,197.916557 95.7671961,197.806288 95.6028328,197.802895 L95.2783939,197.792717 C95.2083608,197.634947 95.1140305,197.482267 95.0011201,197.339766 L95.1669126,197.114138 L95.0997381,196.751099 Z" id="Fill-358" fill="#343636"></path>
            <path d="M89.0702109,191.364739 C88.4654947,191.408823 87.9654409,191.042584 87.956719,190.554264 C87.9479972,190.065944 88.4088026,189.636968 88.980085,189.59458 C89.5470064,189.553886 90.0412456,189.916735 90.0834013,190.405055 C90.1270107,190.893375 89.6734735,191.325741 89.0702109,191.364739 Z M91.1169428,188.751889 L90.7215514,188.460253 L90.3130772,188.470426 L90.0964841,188.650155 C89.9162322,188.57216 89.7272584,188.517902 89.528109,188.483991 L89.4786851,188.22118 C89.4539732,188.08384 89.3173305,187.990584 89.1646978,188.000758 L88.664644,188.03806 C88.5105577,188.049929 88.382637,188.165227 88.3666469,188.305958 L88.337574,188.57216 C88.1384246,188.636591 87.9450899,188.721369 87.7662916,188.828189 L87.5220793,188.677284 L87.1106978,188.729846 L86.7327501,189.077435 L86.6978627,189.440284 L86.9042802,189.653924 C86.8039787,189.809915 86.7254819,189.974384 86.6702434,190.142244 L86.3257296,190.201588 C86.1585605,190.228717 86.0306397,190.354188 86.0204642,190.494919 L86.0001132,190.944241 C85.9957522,191.083277 86.1178584,191.193488 86.2893885,191.196879 L86.6673361,191.207052 L86.8853828,191.625855 L86.6397169,191.885274 L86.6615216,192.246428 L87.0670884,192.539759 C87.1964628,192.629623 87.3970658,192.626232 87.5366157,192.529585 L87.8433348,192.317641 C88.0250403,192.387159 88.2198287,192.438025 88.423339,192.470241 L88.4829384,192.778832 C88.5105577,192.914476 88.6675513,193.009427 88.8492569,192.999254 L89.4350758,192.961952 C89.6153277,192.948387 89.7577849,192.83309 89.7679604,192.69575 L89.7854042,192.393941 C89.9990899,192.332901 90.195332,192.256601 90.3784912,192.156563 L90.6939321,192.322728 C90.8451112,192.399028 91.0398996,192.376985 91.1532839,192.270165 L91.5123342,191.924272 L91.4876222,191.559728 L91.2361416,191.344392 C91.320453,191.190097 91.3829598,191.023932 91.4178472,190.854377 L91.746371,190.800119 C91.9091792,190.77299 92.0167489,190.645824 91.9978515,190.506788 L91.9309838,190.05577 C91.9091792,189.916735 91.7739902,189.806524 91.6097284,189.801437 L91.2870192,189.794655 C91.2157906,189.633577 91.1213037,189.482673 91.0079194,189.341942 L91.1794495,189.113042 L91.1169428,188.751889 Z" id="Fill-359" fill="#343636"></path>
            <path d="M118.107228,186.365788 C117.503454,186.408187 116.980674,186.043555 116.945331,185.553423 C116.911461,185.066682 117.350302,184.635907 117.918733,184.5969 C118.487164,184.552805 119.001109,184.917437 119.068849,185.404178 C119.139535,185.890919 118.708057,186.321693 118.107228,186.365788 Z M120.015744,183.752312 L119.607828,183.460606 L119.196967,183.470782 L118.9908,183.648858 C118.80525,183.570844 118.609392,183.514877 118.412061,183.482654 L118.347265,183.221476 C118.313395,183.084103 118.173496,182.989129 118.020344,183.001001 L117.519653,183.040008 C117.3665,183.051879 117.245746,183.163813 117.238383,183.302882 L117.220711,183.57254 C117.02338,183.63529 116.834885,183.720088 116.662588,183.82863 L116.409297,183.675993 L115.998436,183.728568 L115.642062,184.07624 L115.622918,184.440872 L115.840866,184.656259 C115.749564,184.812287 115.678878,184.973404 115.634699,185.143 L115.288634,185.202359 C115.125173,185.229494 115,185.354995 115,185.494064 L115.004418,185.946886 C115.00589,186.084259 115.135481,186.1928 115.307778,186.197888 L115.684768,186.206368 L115.927751,186.62527 L115.698022,186.884752 L115.73631,187.245992 L116.161897,187.541089 L116.628718,187.530914 L116.926187,187.318919 C117.114682,187.386757 117.312014,187.437636 117.513762,187.469859 L117.591811,187.78022 C117.625682,187.915897 117.790615,188.010871 117.971747,187.998999 L118.55785,187.961688 C118.736037,187.94812 118.872991,187.836187 118.875936,187.695422 L118.878881,187.391845 C119.086521,187.335878 119.282379,187.254472 119.462039,187.156106 L119.786015,187.32231 C119.94064,187.400325 120.136499,187.374885 120.244,187.269736 L120.584175,186.923759 L120.541469,186.560824 L120.273452,186.348829 C120.352974,186.189408 120.407461,186.0249 120.431023,185.855304 L120.759417,185.799337 C120.919933,185.772202 121.024489,185.645005 120.995036,185.505936 L120.905206,185.056506 C120.875754,184.917437 120.73291,184.808896 120.567976,184.803808 L120.244,184.795328 C120.164479,184.635907 120.062868,184.481575 119.945058,184.34081 L120.098211,184.113551 L120.015744,183.752312 Z" id="Fill-360" fill="#343636"></path>
            <path d="M85.1096893,197.384608 C84.1034119,197.450001 83.2715975,196.86853 83.263809,196.087344 C83.2575782,195.307926 84.0301998,194.616877 84.9788421,194.551483 C85.9259267,194.48609 86.7452796,195.067561 86.8075877,195.848747 C86.8745691,196.6317 86.1159667,197.319214 85.1096893,197.384608 Z M88.5413134,193.206501 L87.888635,192.738143 C87.6939219,192.593217 87.402631,192.600286 87.2110333,192.752282 L86.8480881,193.038599 C86.5505664,192.916649 86.2343523,192.828279 85.9072343,192.777025 L85.8246759,192.352852 C85.787291,192.13723 85.5614238,191.985235 85.3075179,192.001142 L84.4772611,192.064768 C84.2217975,192.082441 84.0052765,192.262715 83.9772378,192.490708 L83.9227182,192.918416 C83.590927,193.01739 83.2700398,193.155246 82.9709604,193.326683 L82.5690726,193.084551 C82.3665709,192.959066 82.0721647,192.994414 81.880567,193.167618 L81.2528119,193.724346 C81.056541,193.895782 81.0269447,194.146751 81.1873883,194.307584 L81.5254102,194.650457 C81.3587358,194.899659 81.2247732,195.163 81.1281955,195.431643 L80.5518446,195.525315 C80.2761309,195.569499 80.0564945,195.769214 80.0409174,195.990138 L80.0004171,196.714767 C79.9895132,196.935691 80.1935725,197.110662 80.4755171,197.117732 L81.1048299,197.133638 C81.1873883,197.368701 81.3088893,197.594927 81.4615443,197.803479 L81.0503102,198.220582 C80.8633856,198.406158 80.8742896,198.651825 81.0814643,198.796751 L81.7559506,199.265109 C81.9662407,199.408268 82.302705,199.402965 82.5363608,199.249203 L83.0488457,198.908097 C83.3541559,199.017675 83.6797162,199.104277 84.0146228,199.151996 L84.1112005,199.646865 C84.1563739,199.867789 84.4196261,200.016249 84.7202631,199.998575 L85.6985018,199.936717 C85.9975812,199.919043 86.2390254,199.737002 86.2561602,199.514311 L86.2935451,199.030046 C86.642471,198.934607 86.9773776,198.809123 87.2842455,198.651825 L87.8076343,198.915166 C88.0584248,199.038883 88.3855429,199.003536 88.5740252,198.835634 L89.176857,198.278906 C89.3606662,198.111004 89.3419737,197.858268 89.1410298,197.695668 L88.7157763,197.354562 C88.8637583,197.103593 88.9681245,196.843787 89.0242019,196.569841 L89.5740718,196.481472 C89.8466701,196.43552 90.0289216,196.23227 89.9962098,196.011347 L89.8871704,195.290252 C89.8529009,195.067561 89.625476,194.892589 89.3559931,194.88552 L88.8170271,194.871381 C88.7001993,194.616877 88.5475442,194.374745 88.3606196,194.150286 L88.6456796,193.784437 C88.7889885,193.598861 88.743815,193.349659 88.5413134,193.206501 Z" id="Fill-361" fill="#343636"></path>
            <path d="M140.956643,185 C141.377374,187.207581 138.688718,189 134.949073,189 C131.211103,189 128.10004,187.207581 128.002819,185 C127.90057,182.788809 130.592578,181 134.012066,181 C137.431554,181 140.539265,182.788809 140.956643,185" id="Fill-362" fill="#E6E8E3"></path>
            <path d="M136.984731,185.002975 C137.139136,186.105602 136.105045,187 134.674317,187 C133.240756,187 132.045178,186.105602 132.001264,185.002975 C131.958767,183.896381 132.992858,183 134.313094,183 C135.634747,183 136.828909,183.896381 136.984731,185.002975" id="Fill-363" fill="#D77339"></path>
            <path d="M132.988525,170.999217 C133.108241,171.552075 132.277597,172 131.133849,172 C129.98826,172 129.032374,171.552075 129.001064,170.999217 C128.96607,170.446359 129.798556,170 130.85574,170 C131.914765,170 132.870651,170.446359 132.988525,170.999217" id="Fill-364" fill="#E6E8E3"></path>
        </g>
    </g>
</svg>