<?xml version="1.0" encoding="UTF-8"?>
<svg width="920px" height="250px" viewBox="0 0 920 250" version="1.1" xmlns="http://www.w3.org/2000/svg" xmlns:xlink="http://www.w3.org/1999/xlink">
    <!-- Generator: Sketch 46.2 (44496) - http://www.bohemiancoding.com/sketch -->
    <title>logo</title>
    <desc>Created with Sketch.</desc>
    <defs></defs>
    <g id="Page-1" stroke="none" stroke-width="1" fill="none" fill-rule="evenodd">
        <g id="Artboard-4" transform="translate(-134.000000, -42.000000)" fill="#FFFFFF">
            <g id="logo" transform="translate(134.000000, 42.000000)">
                <path d="M285.313668,250 L244.831863,167 L245,167 L238.147002,153.294005 L228.203799,132.907416 C233.112215,130.662003 237.166557,127.678683 240,124 C243.049034,119.338707 244.529412,114.372618 245,109 C244.529412,100.94739 241.970614,94.5861133 237,90 C231.735269,84.5171925 225.058865,82 217,82 L183,82 L183,167 L202,167 L202,135 L208.354502,135 L264.443749,250 L49.9937509,250 C22.3829647,250 0,227.621705 0,200.009625 L0,98 L123,98 L123,97.4149261 C123.033277,97.8003001 123.070067,98.01728 123.110193,98.0186432 C129.619325,98.2397644 135.034483,100.435283 140,105 C144.551,108.891252 147,115.232305 147,124 C147,131.883869 144.511972,138.205559 140,143 C134.559712,146.841138 128.842127,149 122,149 C115.923703,149 110.245146,146.831457 105,142 C100.449,138.157154 98,131.845144 98,124 C98,115.309754 100.419729,108.988063 105,105 C105,105 82,105 82,105 C82,105 78,115.820007 78,123 C78,130.179993 79.1800003,136.309998 82,142 C83.8799973,147.320007 87.0599976,152.009995 91,156 C95.0699997,159.770004 99.7399979,162.759995 105,165 C110.43,166.949997 116.089996,168 122,168 C128.029999,168 133.649994,166.949997 139,165 C142.075835,163.682621 148.880005,159.770004 153,156 C156.929993,152.009995 160.119995,147.320007 162,142 C164.820007,136.309998 166,130.179993 166,123 C166,116.699997 164.820007,110.599998 162,105 C160.119995,99.6600037 156.929993,94.9899979 153,91 C148.880005,87.2300034 144.229996,84.2399979 139,82 C134.845067,80.4855891 130.527292,80.1171444 125.98109,80.0281052 C124.99829,80.0088566 124.004814,80.0026658 123,80.0007779 L-4.4408921e-16,80 L0,49.9903746 C0,22.3814531 22.3851987,2.84217094e-14 49.9937509,2.84217094e-14 L493,2.84217094e-14 L493,92.5 L493,134 L461,82 L438,82 L438,167 L457,167 L457,111 L492,167 L512,167 L512,92.5 L512,2.85327317e-14 L848.522564,2.84217094e-14 L801.179842,82 L801,82 L783,114 L766,82 L744,82 L773,132 L773,167 L792,167 L792,132 L809.937532,102.104114 L810.252385,102.285894 L821.058313,83.5694779 L822,82 L821.964452,82 L869.307174,-2.77555756e-14 L870.006249,2.84217094e-14 C897.617035,2.84217094e-14 920,22.3782945 920,49.9903746 L920,200.009625 C920,227.618547 897.614801,250 870.006249,250 L652,250 L652,158 L652,111 L674,167 L689,167 L711,111 L711,167 L730,167 L730,82 L704,82 L682,139 L659,82 L634,82 L634,158 L634,250 L285.313668,250 Z M376,82 L325,82 L325,100 L376,100 L376,99.4149261 C376.033277,99.8003001 376.070067,100.01728 376.110193,100.018643 C382.619325,100.239764 388.034483,102.435283 393,107 C397.551,110.891252 400,117.232305 400,126 C400,133.883869 397.511972,140.205559 393,145 C387.559712,148.841138 381.842127,151 375,151 C368.923703,151 363.245146,148.831457 358,144 C353.449,140.157154 351,133.845144 351,126 C351,117.309754 353.419729,110.988063 358,107 C358,107 335,107 335,107 C335,107 331,117.820007 331,125 C331,132.179993 332.18,138.309998 335,144 C336.879997,149.320007 340.059998,154.009995 344,158 C348.07,161.770004 352.739998,164.759995 358,167 C363.43,168.949997 369.089996,170 375,170 C381.029999,170 386.649994,168.949997 392,167 C395.075835,165.682621 401.880005,161.770004 406,158 C409.929993,154.009995 413.119995,149.320007 415,144 C417.820007,138.309998 419,132.179993 419,125 C419,118.699997 417.820007,112.599998 415,107 C413.119995,101.660004 409.929993,96.9899979 406,93 C401.880005,89.2300034 397.229996,86.2399979 392,84 C387.845067,82.4855891 383.527292,82.1171444 378.98109,82.0281052 C377.99829,82.0088566 377.004814,82.0026658 376,82.0007779 Z M542,93 C539.839996,95.1900024 537.910004,97.5800018 536,100 C536.290001,100 566.816375,100 573,100 C580.007998,100 585.754854,102.178224 591,107 C595.551,110.891252 598,117.232305 598,126 C598,133.883869 595.511972,140.205559 591,145 C585.559712,148.841138 579.842127,151 573,151 C566.923703,151 561.245146,148.831457 556,144 C551.449,140.157154 549,133.845144 549,126 C549,117.309754 551.419729,110.988063 556,107 C556,107 533,107 533,107 C533,107 529,117.820007 529,125 C529,132.179993 530.18,138.309998 533,144 C534.879997,149.320007 538.059998,154.009995 542,158 C546.07,161.770004 550.739998,164.759995 556,167 C561.43,168.949997 567.089996,170 573,170 C579.029999,170 584.649994,168.949997 590,167 C593.075835,165.682621 599.880005,161.770004 604,158 C607.929993,154.009995 611.119995,149.320007 613,144 C615.820007,138.309998 617,132.179993 617,125 C617,118.699997 615.820007,112.599998 613,107 C611.119995,101.660004 607.929993,96.9899979 604,93 C599.880005,89.2300034 595.229996,86.2399979 590,84 C584.649994,82.0500031 579.029999,82 573,82 C567.089996,82 561.43,82.0500031 556,84 C550.739998,86.2399979 546.07,89.2300034 542,93 Z M299,100 L325,100 L325,82 L254,82 L254,100 L280,100 L280,167 L299,167 L299,100 Z" id="Combined-Shape-Copy"></path>
                <path d="M213,119 C216.965508,119 219.917919,118.015635 222,116 C223.983596,114.078115 225,111.502857 225,108 C225,105.139189 223.983596,102.623589 222,101 C219.917919,98.9247067 216.965508,98 213,98 L202,98 L202,119 L213,119 Z" id="Combined-Shape-Copy-2"></path>
            </g>
        </g>
    </g>
</svg>