<?xml version="1.0" encoding="UTF-8"?>
<svg width="256px" height="256px" viewBox="0 0 256 256" version="1.1" xmlns="http://www.w3.org/2000/svg" xmlns:xlink="http://www.w3.org/1999/xlink">
    <!-- Generator: Sketch 49.1 (51147) - http://www.bohemiancoding.com/sketch -->
    <title>planner</title>
    <desc>Created with Sketch.</desc>
    <defs>
        <path d="M47.9276206,23.8898147 C47.9276206,36.918794 37.3685151,47.4807732 24.3409725,47.4807732 C11.3119932,47.4807732 0.750014029,36.918794 0.750014029,23.8898147 C0.750014029,10.8608353 11.3119932,0.298856165 24.3409725,0.298856165 C37.3685151,0.298856165 47.9276206,10.8608353 47.9276206,23.8898147 Z" id="path-1"></path>
        <path d="M14.7474023,7.64956837 C14.7474023,11.6984947 11.4657317,14.9801653 7.41967901,14.9801653 C3.37075271,14.9801653 0.0905189345,11.6984947 0.0905189345,7.64956837 C0.0905189345,3.60351568 3.37075271,0.320408292 7.41967901,0.320408292 C11.4657317,0.320408292 14.7474023,3.60351568 14.7474023,7.64956837" id="path-3"></path>
        <path d="M14.8867727,7.64956837 C14.8867727,11.6984947 11.6051021,14.9801653 7.55904944,14.9801653 C3.50868632,14.9801653 0.228452549,11.6984947 0.228452549,7.64956837 C0.228452549,3.60351568 3.50868632,0.320408292 7.55904944,0.320408292 C11.6051021,0.320408292 14.8867727,3.60351568 14.8867727,7.64956837" id="path-5"></path>
        <path d="M15.0261431,7.64956837 C15.0261431,11.6984947 11.7444726,14.9801653 7.69698305,14.9801653 C3.64805674,14.9801653 0.366386164,11.6984947 0.366386164,7.64956837 C0.366386164,3.60351568 3.64805674,0.320408292 7.69698305,0.320408292 C11.7444726,0.320408292 15.0261431,3.60351568 15.0261431,7.64956837" id="path-7"></path>
    </defs>
    <g id="planner" stroke="none" stroke-width="1" fill="none" fill-rule="evenodd">
        <g id="Planner" transform="translate(4.000000, 60.000000)">
            <path d="M106.486187,104.203099 C106.486187,107.818109 103.555098,110.749198 99.9415246,110.749198 C96.3265144,110.749198 93.3954251,107.818109 93.3954251,104.203099 C93.3954251,100.589525 96.3265144,97.6584359 99.9415246,97.6584359 C103.555098,97.6584359 106.486187,100.589525 106.486187,104.203099" id="Fill-216" fill="#F7E0B8"></path>
            <polygon id="Fill-217" fill="#D8C6A5" points="38.4820416 85.2544682 52.186321 85.2544682 52.186321 71.2441487 38.4820416 71.2441487"></polygon>
            <path d="M65.6736422,54.2280258 C65.4035222,54.2280258 65.1420231,54.3688331 64.9049497,54.6130905 L64.8489141,54.3602122 C64.8101203,54.196416 64.7770737,54.0326199 64.7382799,53.8702605 C64.6966124,53.709338 64.6520714,53.5455418 64.6075303,53.3860561 C64.5644261,53.2351912 64.527069,53.0843263 64.4810912,52.936335 C64.4322397,52.7667916 64.3747673,52.6029954 64.3216054,52.4363256 C64.2741908,52.2969552 64.2325233,52.156148 64.1836718,52.021088 C64.1233259,51.848671 64.0557959,51.676254 63.9897027,51.5052737 L63.844585,51.1288299 C63.7713078,50.9506657 63.6937201,50.775375 63.6175693,50.6000844 L63.4652676,50.2552504 C63.3819327,50.0756493 63.2928506,49.9017955 63.2052052,49.7236312 L63.0471563,49.4060966 C62.9508901,49.2221851 62.8488767,49.0440208 62.749737,48.8644198 L62.5931248,48.5842421 C62.4839274,48.397457 62.3689827,48.2135455 62.2554748,48.0325076 L62.1031731,47.7853766 C61.9824812,47.6000283 61.8546053,47.41468 61.7267293,47.2322053 L61.5758644,47.016684 C61.4422412,46.8270253 61.3028708,46.6445506 61.1635004,46.462076 L61.0198195,46.2738541 C60.8703915,46.0856321 60.7166529,45.9017207 60.5643512,45.7206828 L60.4249808,45.5583234 C60.2640583,45.3729751 60.0988253,45.1905005 59.9307187,45.0123362 L59.8057164,44.8758394 C59.6289889,44.6919279 59.4493879,44.5123269 59.2669132,44.3341626 L59.1519685,44.2220915 C58.9637466,44.0410537 58.7697774,43.865763 58.5729347,43.6904724 L58.4737949,43.6028271 C58.2683313,43.4260996 58.0614309,43.2536826 57.8487832,43.0841392 L57.7654483,43.0151724 C57.5470534,42.8441922 57.3257849,42.6789592 57.100206,42.5151631 L57.0298024,42.4620011 C56.799913,42.298205 56.5642764,42.1372824 56.327203,41.9806703 L56.2726043,41.9447501 C56.0269101,41.788138 55.7783422,41.6358363 55.5283375,41.4892818 L55.4852333,41.4634193 C55.2309182,41.315428 54.969419,41.1731839 54.7064831,41.0352503 L54.6763101,41.0194454 C54.4105005,40.8829486 54.1403805,40.7493254 53.8645133,40.6228863 L53.8472716,40.6157022 C53.5685307,40.4863895 53.2854795,40.3671344 53.003865,40.2521897 L52.9938073,40.2478793 C51.2624531,39.5553376 49.410407,39.1113638 47.4778996,38.9604989 L47.475026,38.9604989 C47.1531808,38.9360731 46.8313357,38.9188314 46.5080538,38.9087738 L46.5037434,38.9087738 C46.3284528,38.9030265 46.1517253,38.8958425 45.9749979,38.8958425 C36.77655,38.8958425 29.0824405,45.4907934 27.1068289,54.331476 C26.9789529,54.2653828 26.8438929,54.2280258 26.7045225,54.2280258 C25.5737542,54.2280258 24.6556336,56.5685868 24.6556336,59.4508247 C24.6556336,62.3330625 25.5737542,64.6693131 26.7045225,64.6693131 C26.9430327,64.6693131 27.1729221,64.5615524 27.3870065,64.3704569 C29.7290044,72.6536578 37.1616146,78.7112424 45.9749979,78.7112424 C46.1517253,78.7112424 46.3284528,78.7011847 46.5037434,78.6968743 L46.5080538,78.6968743 C46.8313357,78.6868167 47.1531808,78.6710118 47.475026,78.6451492 L47.4778996,78.6437124 C49.410407,78.4928475 51.2624531,78.0488737 52.9938073,77.3577688 L53.003865,77.3520216 C53.2854795,77.2385137 53.5685307,77.1178218 53.8472716,76.9913827 L53.8645133,76.981325 C54.1403805,76.8563227 54.4105005,76.7241363 54.6763101,76.5847658 L54.7064831,76.5718346 C54.969419,76.433901 55.2309182,76.2902201 55.4852333,76.1422288 L55.5283375,76.1163663 C55.7783422,75.9698118 56.0269101,75.8175101 56.2726043,75.6594612 L56.327203,75.623541 C56.5642764,75.4683657 56.799913,75.3088799 57.0298024,75.1436469 L57.100206,75.0890482 C57.3257849,74.9281257 57.5470534,74.7614559 57.7654483,74.5904757 L57.8487832,74.5215089 C58.0614309,74.3534023 58.2683313,74.1809853 58.4737949,74.002821 L58.5729347,73.9137389 C58.7697774,73.7413219 58.9637466,73.5631576 59.1519685,73.3835565 L59.2669132,73.2714855 C59.4493879,73.0933212 59.6289889,72.9137202 59.8057164,72.7298087 L59.9307187,72.5947487 C60.0988253,72.4137108 60.2640583,72.2341098 60.4249808,72.0458878 L60.5643512,71.8849653 C60.7166529,71.7039274 60.8703915,71.5185791 61.0198195,71.331794 L61.1635004,71.1450089 C61.3028708,70.9610974 61.4422412,70.7786228 61.5758644,70.5904009 L61.7267293,70.372006 C61.8546053,70.1880945 61.9824812,70.0056198 62.1031731,69.8173979 L62.2554748,69.5731404 C62.3689827,69.3921026 62.4839274,69.2081911 62.5931248,69.0228428 L62.749737,68.7397915 C62.8488767,68.5601905 62.9508901,68.3820262 63.0471563,68.1995515 L63.2052052,67.88058 C63.2928506,67.7052894 63.3819327,67.528562 63.4652676,67.3503977 L63.6175693,67.0026901 C63.6937201,66.8288362 63.7713078,66.6549824 63.844585,66.4768182 L63.9897027,66.1018111 C64.0557959,65.9293941 64.1233259,65.7584139 64.1836718,65.5845601 C64.2325233,65.4451897 64.2741908,65.3086929 64.3216054,65.1693224 C64.3747673,65.0026527 64.4322397,64.8388565 64.4810912,64.6693131 C64.527069,64.519885 64.5644261,64.3690201 64.6075303,64.219592 L64.6664395,63.9940131 C64.9638588,64.4236188 65.3072561,64.6693131 65.6736422,64.6693131 C66.8072841,64.6693131 67.7268415,62.3330625 67.7268415,59.4508247 C67.7268415,56.5685868 66.8072841,54.2280258 65.6736422,54.2280258" id="Fill-218" fill="#F7E0B8"></path>
            <path d="M74.8821478,89.5648937 C69.456759,85.9929878 59.7525545,83.5044355 45.6129222,83.5044355 C31.5436935,83.5044355 21.0693596,85.9699989 15.605177,89.5117318 C6.38948733,94.8652802 0.548860841,112.086867 0.548860841,129.189198 L0.548860841,133.93354 L16.9112359,133.93354 L16.9112359,129.189198 C16.9112359,117.930367 20.5463613,110.920178 22.8150819,107.38994 L22.8150819,133.93354 L68.2081724,133.93354 L68.2081724,108.352601 C70.709656,112.127097 74.3088612,133.93354 74.3088612,133.93354 L90.6712362,133.93354 C90.6712362,133.93354 87.5591091,96.4558272 74.8821478,89.5648937" id="Fill-219" fill="#161C1A"></path>
            <path d="M64.6017831,53.3659407 C64.5385635,53.1432354 64.459539,52.929151 64.3905722,52.7093193 C64.2899956,52.3874742 64.1951663,52.0627554 64.0802216,51.7480944 C63.9767714,51.4707903 63.8532059,51.2021072 63.7411348,50.9305504 C63.6391214,50.6862929 63.544292,50.4348514 63.432221,50.1963412 C63.2871033,49.883117 63.1189967,49.582824 62.9566374,49.2796574 C62.8589344,49.0928723 62.7684155,48.9032136 62.6664021,48.7221757 C62.4738697,48.3830889 62.2597853,48.0612438 62.0500112,47.7393987 C61.9609291,47.6014651 61.8804678,47.4606579 61.7885121,47.3270347 C61.5471282,46.9735798 61.2885027,46.6402402 61.0226932,46.304027 L60.8057351,46.0181021 C60.5126261,45.6603368 60.2037123,45.3169396 59.8861776,44.976416 L59.7266919,44.8025622 C59.3818579,44.44336 59.0197821,44.1028364 58.6505223,43.7723705 L58.5542562,43.6832884 C58.1605707,43.3355807 57.7510802,43.0051148 57.3272217,42.6904537 L57.2970488,42.666028 C54.1130811,40.2981676 50.2063989,38.8958425 45.9749979,38.8958425 C35.5566996,38.8958425 27.0651614,47.354334 26.6326821,57.9579807 C27.8582797,56.5642764 28.5996729,54.5958488 29.7864767,53.2265703 C31.772146,50.9377344 34.2980553,49.3414402 36.5121772,47.3026089 C38.0409414,45.8887894 40.6185759,45.6545896 42.1171671,47.3026089 C43.2867292,48.5856789 44.8126198,49.8213342 46.5037434,50.7696278 L46.5051802,50.7710646 C47.0597883,51.0814152 47.6316381,51.3587193 48.2164191,51.6001031 L48.4032042,51.6748172 C48.5828053,51.7452208 48.7624064,51.8156244 48.944881,51.8759703 L49.0454576,51.9104537 C49.3673027,52.0153408 49.6891478,52.1101701 50.0138665,52.1891946 C50.1518002,52.2222412 50.288297,52.2552878 50.4276674,52.2840239 C50.558417,52.3113233 50.6891665,52.3386227 50.8227897,52.3616116 C51.068484,52.4047159 51.315615,52.4348888 51.5613093,52.4593146 L51.878844,52.4808667 C52.0828708,52.4923612 52.2897712,52.4995452 52.4923612,52.4981084 L52.7323082,52.4952348 C53.003865,52.4851771 53.2725482,52.4607514 53.5412314,52.4248312 L53.7739943,52.3874742 C54.023999,52.3472435 54.2725669,52.2940816 54.5182611,52.2294252 L54.624585,52.2021259 C54.9033258,52.1231014 55.1734458,52.0253984 55.442129,51.9104537 L55.6418454,51.8242452 C55.9134022,51.7006797 56.184959,51.5656197 56.4493317,51.4032603 C58.3372981,50.258124 60.7439523,51.0196325 61.8732838,52.8257007 C62.3962821,53.6676705 63.7037778,54.4018797 64.9868478,55.0455699 C64.8833976,54.4780305 64.752648,53.9162384 64.6017831,53.3659407" id="Fill-220" fill="#48301D"></path>
            <path d="M67.0802777,48.0770487 C67.055852,47.9189998 67.0199318,47.759514 66.9682067,47.5971547 C66.6190622,46.4836281 65.6995048,43.1804054 65.6995048,41.9777967 C65.6995048,32.5940005 56.9206049,24.9846627 46.0899426,24.9846627 C35.2592802,24.9846627 26.4789436,32.5940005 26.4789436,41.9777967 C26.4789436,43.0324141 25.5263395,46.2637964 24.8567868,48.0770487 L67.0802777,48.0770487" id="Fill-221" fill="#DB944E"></path>
            <path d="M45.7968336,31.1485711 C48.5885525,31.1485711 50.865894,28.8726665 50.865894,26.0795108 C50.865894,23.2863551 48.5885525,21.0104505 45.7968336,21.0104505 C43.0036779,21.0104505 40.7277733,23.2863551 40.7277733,26.0795108 C40.7277733,28.8726665 43.0036779,31.1485711 45.7968336,31.1485711" id="Fill-222" fill="#DB944E"></path>
            <path d="M34.5135766,28.2620229 C36.280851,27.1384387 38.2722676,26.2691695 40.4174227,25.7073774 C40.5553563,26.0550851 40.6315071,26.4358393 40.6315071,26.8309616 L40.6315071,40.4720214 C40.6315071,42.1530873 39.2564814,43.5295499 37.5725419,43.5295499 C35.8886023,43.5295499 34.5135766,42.1530873 34.5135766,40.4720214 L34.5135766,28.2620229" id="Fill-223" fill="#B78044"></path>
            <path d="M51.2322801,25.5766278 C53.3429518,26.0723268 55.314253,26.865445 57.0786539,27.901384 L57.0786539,40.4720214 C57.0786539,42.1530873 55.7021913,43.5295499 54.0196886,43.5295499 C52.3386227,43.5295499 50.963597,42.1530873 50.963597,40.4720214 L50.963597,26.8309616 C50.963597,26.3869878 51.0569895,25.9588189 51.2322801,25.5766278" id="Fill-224" fill="#B78044"></path>
            <path d="M68.2929441,48.3514791 C68.2929441,49.2537949 67.5831607,49.9865672 66.7081443,49.9865672 L25.2289202,49.9865672 C24.352467,49.9865672 23.6426836,49.2537949 23.6426836,48.3514791 C23.6426836,47.444853 24.352467,46.7135175 25.2289202,46.7135175 L66.7081443,46.7135175 C67.5831607,46.7135175 68.2929441,47.444853 68.2929441,48.3514791" id="Fill-225" fill="#B78044"></path>
            <path d="M36.7564347,83.830591 L45.5899332,111.927381 L53.7826152,83.7831764 C53.7826152,83.7831764 52.5038556,83.4871938 46.0238494,83.4871938 C39.5424063,83.4871938 36.7564347,83.830591 36.7564347,83.830591" id="Fill-226" fill="#FFFFFE"></path>
            <path d="M50.1963412,83.4139166 C50.1963412,84.8636563 48.2264768,86.0389657 45.79396,86.0389657 C43.3628801,86.0389657 41.3930156,84.8636563 41.3930156,83.4139166 C41.3930156,81.9641768 43.3628801,80.7888675 45.79396,80.7888675 C48.2264768,80.7888675 50.1963412,81.9641768 50.1963412,83.4139166" id="Fill-227" fill="#2A888E"></path>
            <polyline id="Fill-228" fill="#2A888E" points="44.6186507 84.7774478 42.673212 102.674334 45.5899332 111.927381 48.4003306 102.726059 47.3801966 84.8291729 44.6186507 84.7774478"></polyline>
            <polygon id="Fill-229" fill="#FFFFFE" points="52.4736827 117.842721 64.2023503 117.842721 64.2023503 111.571052 52.4736827 111.571052"></polygon>
            <polyline id="Fill-230" fill="#091210" points="53.7826152 83.7831764 60.8790123 90.9140569 45.5899332 111.927381 53.7826152 83.7831764"></polyline>
            <polyline id="Fill-231" fill="#091210" points="36.7808604 83.8190966 30.684482 90.9643452 45.6229798 112.015026 36.7808604 83.8190966"></polyline>
            <polygon id="Fill-232" fill="#091210" points="44.8858971 133.963713 46.2508651 133.963713 46.2508651 111.720481 44.8858971 111.720481"></polygon>
            <path d="M88.9312612,81.7472187 L89.2214965,4.61646566 L246.333631,4.28599971 L246.044832,81.76015 L88.9312612,81.7472187 Z M248.826493,0.97702977 C248.45436,0.658058286 247.962971,0.515814246 247.475893,0.58765467 C247.228762,0.623574882 87.7458942,0.625011691 87.5030735,0.58765467 C87.0145586,0.512940629 86.5231701,0.655184669 86.1495999,0.975592961 C85.7774665,1.29456444 85.5619453,1.76296401 85.5619453,2.2514789 L85.5619453,90.3982426 C85.5619453,90.8709526 85.7616616,91.3221105 86.1122429,91.6439556 C86.4211567,91.9270068 86.8263367,92.0850558 87.2458848,92.0850558 L87.4010601,92.0749981 C87.686985,92.0491356 247.271867,92.0505724 247.586528,92.0778717 C248.060674,92.113792 248.5262,91.9571798 248.869598,91.6367715 C249.215868,91.3178001 249.412711,90.8695158 249.412711,90.3982426 L249.412711,2.2514789 C249.412711,1.76296401 249.19719,1.29600125 248.826493,0.97702977 Z" id="Fill-233" fill="#343636"></path>
            <polyline id="Fill-234" fill="#E6E8E3" points="88.9312612 81.7472187 89.2214965 4.61646566 246.333631 4.28599971 246.044832 81.76015 88.9312612 81.7472187"></polyline>
            <polygon id="Fill-235" fill="#D77339" points="200.46783 15.2962631 239.586378 15.2962631 239.586378 10.1539256 200.46783 10.1539256"></polygon>
            <polygon id="Fill-236" fill="#D77339" points="215.137645 22.191507 239.586378 22.191507 239.586378 17.0491695 215.137645 17.0491695"></polygon>
            <path d="M112.980562,54.5613654 L122.970691,54.5613654 L122.970691,44.5726728 L112.980562,44.5726728 L112.980562,54.5613654 Z M123.137361,54.8975786 L112.811018,54.8975786 L112.642912,54.729472 L112.642912,44.4031294 L112.811018,44.2350228 L123.137361,44.2350228 L123.306904,44.4031294 L123.306904,54.729472 L123.137361,54.8975786 Z" id="Fill-237" fill="#6E7371"></path>
            <path d="M112.980562,44.2508277 L122.970691,44.2508277 L122.970691,34.2578247 L112.980562,34.2578247 L112.980562,44.2508277 Z M123.137361,44.5856041 L112.811018,44.5856041 L112.642912,44.4174975 L112.642912,34.0882813 L112.811018,33.9216115 L123.137361,33.9216115 L123.306904,34.0882813 L123.306904,44.4174975 L123.137361,44.5856041 Z" id="Fill-238" fill="#6E7371"></path>
            <path d="M112.980562,33.9359796 L122.970691,33.9359796 L122.970691,23.947287 L112.980562,23.947287 L112.980562,33.9359796 Z M123.137361,34.2736296 L112.811018,34.2736296 L112.642912,34.1040862 L112.642912,23.7777436 L112.811018,23.6067634 L123.137361,23.6067634 L123.306904,23.7777436 L123.306904,34.1040862 L123.137361,34.2736296 Z" id="Fill-239" fill="#6E7371"></path>
            <path d="M123.306904,44.2623222 L133.29847,44.2623222 L133.29847,34.2736296 L123.306904,34.2736296 L123.306904,44.2623222 Z M133.466577,44.601409 L123.137361,44.601409 L122.970691,44.4318656 L122.970691,34.1040862 L123.137361,33.9359796 L133.466577,33.9359796 L133.63181,34.1040862 L133.63181,44.4318656 L133.466577,44.601409 Z" id="Fill-240" fill="#6E7371"></path>
            <path d="M123.306904,33.9503477 L133.29847,33.9503477 L133.29847,23.9602183 L123.306904,23.9602183 L123.306904,33.9503477 Z M133.466577,34.2851241 L123.137361,34.2851241 L122.970691,34.1184543 L122.970691,23.7921117 L123.137361,23.6225683 L133.466577,23.6225683 L133.63181,23.7921117 L133.63181,34.1184543 L133.466577,34.2851241 Z" id="Fill-241" fill="#6E7371"></path>
            <path d="M102.612552,44.2206547 L112.601244,44.2206547 L112.601244,34.2290885 L102.612552,34.2290885 L102.612552,44.2206547 Z M112.767914,44.5568679 L102.441571,44.5568679 L102.274902,44.3887613 L102.274902,34.0638556 L102.441571,33.8943122 L112.767914,33.8943122 L112.937457,34.0638556 L112.937457,44.3887613 L112.767914,44.5568679 Z" id="Fill-242" fill="#6E7371"></path>
            <path d="M102.612552,33.9072434 L112.601244,33.9072434 L112.601244,23.9185508 L102.612552,23.9185508 L102.612552,33.9072434 Z M112.767914,34.2448934 L102.441571,34.2448934 L102.274902,34.07535 L102.274902,23.7490074 L102.441571,23.5823377 L112.767914,23.5823377 L112.937457,23.7490074 L112.937457,34.07535 L112.767914,34.2448934 Z" id="Fill-243" fill="#6E7371"></path>
            <path d="M112.980562,23.6225683 L122.970691,23.6225683 L122.970691,13.6324389 L112.980562,13.6324389 L112.980562,23.6225683 Z M123.137361,23.9602183 L112.811018,23.9602183 L112.642912,23.7921117 L112.642912,13.4643323 L112.811018,13.2976625 L123.137361,13.2976625 L123.306904,13.4643323 L123.306904,23.7921117 L123.137361,23.9602183 Z" id="Fill-244" fill="#6E7371"></path>
            <polygon id="Fill-245" fill="#343636" points="121.959178 18.6555214 137.25113 18.6555214 137.25113 18.0664299 121.959178 18.0664299"></polygon>
            <polygon id="Fill-246" fill="#343636" points="128.921952 39.8771827 144.798685 39.8771827 144.798685 39.2880912 128.921952 39.2880912"></polygon>
            <polygon id="Fill-247" fill="#343636" points="118.724922 52.2265516 134.604529 52.2265516 134.604529 51.6388969 118.724922 51.6388969"></polygon>
            <polygon id="Fill-248" fill="#343636" points="120.502254 28.5062803 148.718299 28.5062803 148.718299 27.9171889 120.502254 27.9171889"></polygon>
            <polyline id="Fill-249" fill="#6E7371" points="112.504978 44.541063 102.402778 34.4374258 102.818015 34.0207513 112.920216 44.1258254 112.504978 44.541063"></polyline>
            <polyline id="Fill-250" fill="#6E7371" points="122.724997 34.21041 112.621359 24.1110832 113.036597 23.6944087 123.140234 33.7966092 122.724997 34.21041"></polyline>
            <polyline id="Fill-251" fill="#6E7371" points="119.687584 34.21041 112.621359 27.1111393 112.914468 26.8180304 119.977819 33.9201747 119.687584 34.21041"></polyline>
            <polyline id="Fill-252" fill="#6E7371" points="116.368556 34.1744898 112.621359 30.4632135 112.776535 30.3109118 116.523731 34.0207513 116.368556 34.1744898"></polyline>
            <path d="M200.22932,44.0051335 C200.22932,57.0341128 189.670214,67.596092 176.642672,67.596092 C163.613693,67.596092 153.051713,57.0341128 153.051713,44.0051335 C153.051713,30.9761541 163.613693,20.414175 176.642672,20.414175 C189.670214,20.414175 200.22932,30.9761541 200.22932,44.0051335" id="Fill-253" fill="#343636"></path>
            <g id="Group-257" transform="translate(152.301699, 20.115319)">
                <mask id="mask-2" fill="white">
                    <use xlink:href="#path-1"></use>
                </mask>
                <g id="Clip-255"></g>
                <polygon id="Fill-254" fill="#D77339" mask="url(#mask-2)" points="24.2720057 24.0248747 47.9276206 24.0248747 47.9276206 0.298856165 24.2720057 0.298856165"></polygon>
                <polyline id="Fill-256" fill="#55B08B" mask="url(#mask-2)" points="52.6346052 52.3199442 24.2720057 23.9573447 52.6346052 23.9573447 52.6346052 52.3199442"></polyline>
            </g>
            <path d="M112.450379,69.4323332 C112.450379,73.4812595 109.168709,76.7629301 105.122656,76.7629301 C101.07373,76.7629301 97.7934959,73.4812595 97.7934959,69.4323332 C97.7934959,65.3862805 101.07373,62.1031731 105.122656,62.1031731 C109.168709,62.1031731 112.450379,65.3862805 112.450379,69.4323332" id="Fill-258" fill="#343636"></path>
            <g id="Group-263" transform="translate(97.702977, 61.782765)">
                <mask id="mask-4" fill="white">
                    <use xlink:href="#path-3"></use>
                </mask>
                <g id="Clip-260"></g>
                <polyline id="Fill-259" fill="#D77339" mask="url(#mask-4)" points="9.9743245 -4.31329907 7.39812689 7.69267263 -6.18258691 0.596275521 16.2100733 -1.11927381 9.9743245 -4.31329907"></polyline>
                <polyline id="Fill-261" fill="#2A888E" mask="url(#mask-4)" points="16.1684059 16.5060559 -1.50002806 16.4629516 7.35502263 7.69267263 16.1684059 7.69267263 16.1684059 16.5060559"></polyline>
                <polyline id="Fill-262" fill="#55B08B" mask="url(#mask-4)" points="16.2100733 16.4816301 7.39812689 7.6711205 9.46282068 -1.86066699 16.0074833 4.47996886 16.2100733 16.4816301"></polyline>
            </g>
            <path d="M131.26826,69.4323332 C131.26826,73.4812595 127.986589,76.7629301 123.940537,76.7629301 C119.890174,76.7629301 116.60994,73.4812595 116.60994,69.4323332 C116.60994,65.3862805 119.890174,62.1031731 123.940537,62.1031731 C127.986589,62.1031731 131.26826,65.3862805 131.26826,69.4323332" id="Fill-264" fill="#343636"></path>
            <g id="Group-269" transform="translate(116.381487, 61.782765)">
                <mask id="mask-6" fill="white">
                    <use xlink:href="#path-5"></use>
                </mask>
                <g id="Clip-266"></g>
                <polyline id="Fill-265" fill="#2A888E" mask="url(#mask-6)" points="8.16969304 20.2302635 -11.9757987 6.52598414 7.49439306 7.69267263 16.3077763 7.69267263 8.16969304 20.2302635"></polyline>
                <polyline id="Fill-267" fill="#55B08B" mask="url(#mask-6)" points="10.9326758 18.5937386 7.5360605 7.6711205 16.3480069 7.6711205 10.9326758 18.5937386"></polyline>
                <polyline id="Fill-268" fill="#D77339" mask="url(#mask-6)" points="15.9442638 10.2070875 7.5360605 7.69267263 7.5360605 -1.11927381 16.3480069 -1.11927381 15.9442638 10.2070875"></polyline>
            </g>
            <path d="M150.086141,69.4323332 C150.086141,73.4812595 146.80447,76.7629301 142.756981,76.7629301 C138.708054,76.7629301 135.426384,73.4812595 135.426384,69.4323332 C135.426384,65.3862805 138.708054,62.1031731 142.756981,62.1031731 C146.80447,62.1031731 150.086141,65.3862805 150.086141,69.4323332" id="Fill-270" fill="#343636"></path>
            <g id="Group-275" transform="translate(135.059998, 61.782765)">
                <mask id="mask-8" fill="white">
                    <use xlink:href="#path-7"></use>
                </mask>
                <g id="Clip-272"></g>
                <polyline id="Fill-271" fill="#D77339" mask="url(#mask-8)" points="15.1612031 1.82187316 7.67543093 7.69267263 7.67543093 -1.11927381 16.4873774 -1.11927381 15.1612031 1.82187316"></polyline>
                <polyline id="Fill-273" fill="#2A888E" mask="url(#mask-8)" points="16.4442731 16.5060559 -1.22272402 16.4629516 7.63376348 7.69267263 16.4442731 7.69267263 16.4442731 16.5060559"></polyline>
                <polyline id="Fill-274" fill="#55B08B" mask="url(#mask-8)" points="16.4873774 16.4816301 7.67543093 7.6711205 15.6712701 1.20835594 16.4873774 16.4816301"></polyline>
            </g>
            <path d="M218.343165,70.7297713 L211.666316,70.7297713 C211.216594,70.7297713 210.848772,71.0961574 210.848772,71.5487521 L210.848772,77.4784607 C210.848772,77.9296186 211.216594,78.2960048 211.666316,78.2960048 L218.343165,78.2960048 C218.794322,78.2960048 219.160709,77.9296186 219.160709,77.4784607 L219.160709,71.5487521 C219.160709,71.0961574 218.794322,70.7297713 218.343165,70.7297713 Z M211.666316,77.4784607 L218.343165,77.4784607 L218.343165,71.5487521 L211.666316,71.5487521 L211.666316,77.4784607 Z" id="Fill-276" fill="#7F8482"></path>
            <path d="M225.850489,70.7297713 L219.176513,70.7297713 C218.723919,70.7297713 218.357533,71.0961574 218.357533,71.5487521 L218.357533,77.4784607 C218.357533,77.9296186 218.723919,78.2960048 219.176513,78.2960048 L225.850489,78.2960048 C226.303084,78.2960048 226.668033,77.9296186 226.668033,77.4784607 L226.668033,71.5487521 C226.668033,71.0961574 226.303084,70.7297713 225.850489,70.7297713 Z M219.176513,77.4784607 L225.850489,77.4784607 L225.850489,71.5487521 L219.176513,71.5487521 L219.176513,77.4784607 Z" id="Fill-277" fill="#7F8482"></path>
            <path d="M233.362124,70.7297713 L226.685275,70.7297713 C226.235554,70.7297713 225.869167,71.0961574 225.869167,71.5487521 L225.869167,77.4784607 C225.869167,77.9296186 226.235554,78.2960048 226.685275,78.2960048 L233.362124,78.2960048 C233.810408,78.2960048 234.179668,77.9296186 234.179668,77.4784607 L234.179668,71.5487521 C234.179668,71.0961574 233.810408,70.7297713 233.362124,70.7297713 Z M226.685275,77.4784607 L233.362124,77.4784607 L233.362124,71.5487521 L226.685275,71.5487521 L226.685275,77.4784607 Z" id="Fill-278" fill="#7F8482"></path>
            <path d="M240.870885,70.7297713 L234.194036,70.7297713 C233.744315,70.7297713 233.377929,71.0961574 233.377929,71.5487521 L233.377929,77.4784607 C233.377929,77.9296186 233.744315,78.2960048 234.194036,78.2960048 L240.870885,78.2960048 C241.320606,78.2960048 241.688429,77.9296186 241.688429,77.4784607 L241.688429,71.5487521 C241.688429,71.0961574 241.320606,70.7297713 240.870885,70.7297713 Z M234.194036,77.4784607 L240.870885,77.4784607 L240.870885,71.5487521 L234.194036,71.5487521 L234.194036,77.4784607 Z" id="Fill-279" fill="#7F8482"></path>
            <path d="M218.302934,64.2713171 L211.627522,64.2713171 C211.176364,64.2713171 210.808541,64.6362665 210.808541,65.0888612 L210.808541,71.0185698 C210.808541,71.4726013 211.176364,71.8375506 211.627522,71.8375506 L218.302934,71.8375506 C218.754092,71.8375506 219.120478,71.4726013 219.120478,71.0185698 L219.120478,65.0888612 C219.120478,64.6362665 218.754092,64.2713171 218.302934,64.2713171 Z M211.627522,71.0185698 L218.302934,71.0185698 L218.302934,65.0888612 L211.627522,65.0888612 L211.627522,71.0185698 Z" id="Fill-280" fill="#7F8482"></path>
            <path d="M225.811695,64.2713171 L219.13772,64.2713171 C218.686562,64.2713171 218.318739,64.6362665 218.318739,65.0888612 L218.318739,71.0185698 C218.318739,71.4726013 218.686562,71.8375506 219.13772,71.8375506 L225.811695,71.8375506 C226.26429,71.8375506 226.629239,71.4726013 226.629239,71.0185698 L226.629239,65.0888612 C226.629239,64.6362665 226.26429,64.2713171 225.811695,64.2713171 Z M219.13772,71.0185698 L225.811695,71.0185698 L225.811695,65.0888612 L219.13772,65.0888612 L219.13772,71.0185698 Z" id="Fill-281" fill="#7F8482"></path>
            <path d="M233.32333,64.2713171 L226.646481,64.2713171 C226.19676,64.2713171 225.8275,64.6362665 225.8275,65.0888612 L225.8275,71.0185698 C225.8275,71.4726013 226.19676,71.8375506 226.646481,71.8375506 L233.32333,71.8375506 C233.773051,71.8375506 234.140874,71.4726013 234.140874,71.0185698 L234.140874,65.0888612 C234.140874,64.6362665 233.773051,64.2713171 233.32333,64.2713171 Z M226.646481,71.0185698 L233.32333,71.0185698 L233.32333,65.0888612 L226.646481,65.0888612 L226.646481,71.0185698 Z" id="Fill-282" fill="#7F8482"></path>
            <path d="M240.830654,64.2713171 L234.155242,64.2713171 C233.704084,64.2713171 233.337698,64.6362665 233.337698,65.0888612 L233.337698,71.0185698 C233.337698,71.4726013 233.704084,71.8375506 234.155242,71.8375506 L240.830654,71.8375506 C241.281812,71.8375506 241.651072,71.4726013 241.651072,71.0185698 L241.651072,65.0888612 C241.651072,64.6362665 241.281812,64.2713171 240.830654,64.2713171 Z M234.155242,71.0185698 L240.830654,71.0185698 L240.830654,65.0888612 L234.155242,65.0888612 L234.155242,71.0185698 Z" id="Fill-283" fill="#7F8482"></path>
            <path d="M218.261266,57.8114262 L211.588728,57.8114262 C211.134696,57.8114262 210.769747,58.1763755 210.769747,58.6275334 L210.769747,64.5586788 C210.769747,65.0112735 211.134696,65.3776597 211.588728,65.3776597 L218.261266,65.3776597 C218.715298,65.3776597 219.081684,65.0112735 219.081684,64.5586788 L219.081684,58.6275334 C219.081684,58.1763755 218.715298,57.8114262 218.261266,57.8114262 Z M211.588728,64.5586788 L218.261266,64.5586788 L218.261266,58.6275334 L211.588728,58.6275334 L211.588728,64.5586788 Z" id="Fill-284" fill="#7F8482"></path>
            <path d="M225.772901,57.8114262 L219.096052,57.8114262 C218.644894,57.8114262 218.278508,58.1763755 218.278508,58.6275334 L218.278508,64.5586788 C218.278508,65.0112735 218.644894,65.3776597 219.096052,65.3776597 L225.772901,65.3776597 C226.222622,65.3776597 226.589008,65.0112735 226.589008,64.5586788 L226.589008,58.6275334 C226.589008,58.1763755 226.222622,57.8114262 225.772901,57.8114262 Z M219.096052,64.5586788 L225.772901,64.5586788 L225.772901,58.6275334 L219.096052,58.6275334 L219.096052,64.5586788 Z" id="Fill-285" fill="#7F8482"></path>
            <path d="M233.281662,57.8114262 L226.607687,57.8114262 C226.155092,57.8114262 225.787269,58.1763755 225.787269,58.6275334 L225.787269,64.5586788 C225.787269,65.0112735 226.155092,65.3776597 226.607687,65.3776597 L233.281662,65.3776597 C233.734257,65.3776597 234.100643,65.0112735 234.100643,64.5586788 L234.100643,58.6275334 C234.100643,58.1763755 233.734257,57.8114262 233.281662,57.8114262 Z M226.607687,64.5586788 L233.281662,64.5586788 L233.281662,58.6275334 L226.607687,58.6275334 L226.607687,64.5586788 Z" id="Fill-286" fill="#7F8482"></path>
            <path d="M240.79186,57.8114262 L234.115011,57.8114262 C233.66529,57.8114262 233.297467,58.1763755 233.297467,58.6275334 L233.297467,64.5586788 C233.297467,65.0112735 233.66529,65.3776597 234.115011,65.3776597 L240.79186,65.3776597 C241.241581,65.3776597 241.607968,65.0112735 241.607968,64.5586788 L241.607968,58.6275334 C241.607968,58.1763755 241.241581,57.8114262 240.79186,57.8114262 Z M234.115011,64.5586788 L240.79186,64.5586788 L240.79186,58.6275334 L234.115011,58.6275334 L234.115011,64.5586788 Z" id="Fill-287" fill="#7F8482"></path>
            <path d="M218.222473,51.3515352 L211.548497,51.3515352 C211.095903,51.3515352 210.729516,51.7193582 210.729516,52.1690793 L210.729516,58.1002247 C210.729516,58.5528194 211.095903,58.9192055 211.548497,58.9192055 L218.222473,58.9192055 C218.675067,58.9192055 219.040017,58.5528194 219.040017,58.1002247 L219.040017,52.1690793 C219.040017,51.7193582 218.675067,51.3515352 218.222473,51.3515352 Z M211.548497,58.1002247 L218.222473,58.1002247 L218.222473,52.1690793 L211.548497,52.1690793 L211.548497,58.1002247 Z" id="Fill-288" fill="#7F8482"></path>
            <path d="M225.731234,51.3515352 L219.057258,51.3515352 C218.604664,51.3515352 218.239714,51.7193582 218.239714,52.1690793 L218.239714,58.1002247 C218.239714,58.5528194 218.604664,58.9192055 219.057258,58.9192055 L225.731234,58.9192055 C226.185265,58.9192055 226.551651,58.5528194 226.551651,58.1002247 L226.551651,52.1690793 C226.551651,51.7193582 226.185265,51.3515352 225.731234,51.3515352 Z M219.057258,58.1002247 L225.731234,58.1002247 L225.731234,52.1690793 L219.057258,52.1690793 L219.057258,58.1002247 Z" id="Fill-289" fill="#7F8482"></path>
            <path d="M233.242869,51.3515352 L226.567456,51.3515352 C226.114862,51.3515352 225.748475,51.7193582 225.748475,52.1690793 L225.748475,58.1002247 C225.748475,58.5528194 226.114862,58.9192055 226.567456,58.9192055 L233.242869,58.9192055 C233.694026,58.9192055 234.058976,58.5528194 234.058976,58.1002247 L234.058976,52.1690793 C234.058976,51.7193582 233.694026,51.3515352 233.242869,51.3515352 Z M226.567456,58.1002247 L233.242869,58.1002247 L233.242869,52.1690793 L226.567456,52.1690793 L226.567456,58.1002247 Z" id="Fill-290" fill="#7F8482"></path>
            <path d="M240.753066,51.3515352 L234.076217,51.3515352 C233.626496,51.3515352 233.258673,51.7193582 233.258673,52.1690793 L233.258673,58.1002247 C233.258673,58.5528194 233.626496,58.9192055 234.076217,58.9192055 L240.753066,58.9192055 C241.202788,58.9192055 241.569174,58.5528194 241.569174,58.1002247 L241.569174,52.1690793 C241.569174,51.7193582 241.202788,51.3515352 240.753066,51.3515352 Z M234.076217,58.1002247 L240.753066,58.1002247 L240.753066,52.1690793 L234.076217,52.1690793 L234.076217,58.1002247 Z" id="Fill-291" fill="#7F8482"></path>
            <path d="M238.326297,41.6171578 L213.853138,41.6171578 C213.481005,41.6171578 213.154849,41.8671624 213.061457,42.2263646 L210.676354,51.2868789 C210.614572,51.5311363 210.666297,51.7940723 210.820035,51.9937886 C210.976647,52.1949418 211.213721,52.3127601 211.469473,52.3127601 L240.712836,52.3127601 C240.964277,52.3127601 241.202788,52.1949418 241.357963,51.9937886 C241.516012,51.7940723 241.567737,51.5311363 241.503081,51.2868789 L239.119415,42.2263646 C239.023149,41.8671624 238.69843,41.6171578 238.326297,41.6171578 Z M238.326297,42.4361386 L240.712836,51.4952161 L211.469473,51.4952161 L213.853138,42.4361386 L238.326297,42.4361386 Z" id="Fill-292" fill="#7F8482"></path>
            <polyline id="Fill-293" fill="#161C1A" points="74.4769678 133.712271 90.8393428 133.712271 105.394213 108.908646 93.3954251 101.000452 74.4769678 133.712271"></polyline>
            <polyline id="Fill-294" fill="#161C1A" points="103.024916 102.353926 101.711673 101.378333 145.098978 42.9016645 146.412221 43.8772575 103.024916 102.353926"></polyline>
        </g>
    </g>
</svg>