<?xml version="1.0" encoding="UTF-8"?>
<svg width="128px" height="128px" viewBox="0 0 128 128" version="1.1" xmlns="http://www.w3.org/2000/svg" xmlns:xlink="http://www.w3.org/1999/xlink">
    <!-- Generator: Sketch 46.2 (44496) - http://www.bohemiancoding.com/sketch -->
    <title>product-white</title>
    <desc>Created with Sketch.</desc>
    <defs></defs>
    <g id="Page-1" stroke="none" stroke-width="1" fill="none" fill-rule="evenodd">
        <g id="product-white" fill-rule="nonzero" fill="#EEEEEE">
            <g id="noun_645985_cc-copy" transform="translate(22.000000, 13.000000)">
                <g id="Group">
                    <rect id="Rectangle-path" x="48.875" y="17" width="17" height="4.25"></rect>
                    <rect id="Rectangle-path" x="12.75" y="57.375" width="17" height="4.25"></rect>
                    <rect id="Rectangle-path" x="48.875" y="25.5" width="23.375" height="2.125"></rect>
                    <rect id="Rectangle-path" x="48.875" y="29.75" width="19.125" height="2.125"></rect>
                    <rect id="Rectangle-path" x="48.875" y="34" width="23.375" height="2.125"></rect>
                    <rect id="Rectangle-path" x="48.875" y="42.5" width="23.375" height="2.125"></rect>
                    <rect id="Rectangle-path" x="34" y="57.375" width="38.25" height="2.125"></rect>
                    <rect id="Rectangle-path" x="34" y="61.625" width="31.875" height="2.125"></rect>
                    <rect id="Rectangle-path" x="12.75" y="70.125" width="17" height="4.25"></rect>
                    <rect id="Rectangle-path" x="34" y="70.125" width="38.25" height="2.125"></rect>
                    <rect id="Rectangle-path" x="34" y="74.375" width="31.875" height="2.125"></rect>
                    <rect id="Rectangle-path" x="12.75" y="82.875" width="17" height="4.25"></rect>
                    <rect id="Rectangle-path" x="34" y="82.875" width="38.25" height="2.125"></rect>
                    <rect id="Rectangle-path" x="34" y="87.125" width="31.875" height="2.125"></rect>
                    <rect id="Rectangle-path" x="48.875" y="38.25" width="19.125" height="2.125"></rect>
                    <path d="M0,0 L0,102 L85,102 L85,0 L0,0 Z M17,2.125 C18.175125,2.125 19.125,3.074875 19.125,4.25 C19.125,5.425125 18.175125,6.375 17,6.375 C15.824875,6.375 14.875,5.425125 14.875,4.25 C14.875,3.074875 15.824875,2.125 17,2.125 Z M10.625,2.125 C11.800125,2.125 12.75,3.074875 12.75,4.25 C12.75,5.425125 11.800125,6.375 10.625,6.375 C9.449875,6.375 8.5,5.425125 8.5,4.25 C8.5,3.074875 9.449875,2.125 10.625,2.125 Z M4.25,2.125 C5.425125,2.125 6.375,3.074875 6.375,4.25 C6.375,5.425125 5.425125,6.375 4.25,6.375 C3.074875,6.375 2.125,5.425125 2.125,4.25 C2.125,3.074875 3.074875,2.125 4.25,2.125 Z M82.875,99.875 L2.125,99.875 L2.125,8.5 L82.875,8.5 L82.875,99.875 Z" id="Shape"></path>
                    <path d="M44.625,17 L12.75,17 L12.75,40.375 L44.625,40.375 L44.625,17 Z M20.1875,21.25 C21.947,21.25 23.375,22.678 23.375,24.4375 C23.375,26.199125 21.947,27.625 20.1875,27.625 C18.428,27.625 17,26.199125 17,24.4375 C17,22.678 18.428,21.25 20.1875,21.25 Z M42.5,36.125 L42.5,38.25 L14.875,38.25 L14.875,34 L19.125,29.75 L23.375,34 L34,23.377125 L42.5,31.875 L42.5,36.125 Z" id="Shape"></path>
                    <rect id="Rectangle-path" x="12.75" y="42.5" width="6.375" height="4.25"></rect>
                    <rect id="Rectangle-path" x="21.25" y="42.5" width="6.375" height="4.25"></rect>
                    <rect id="Rectangle-path" x="29.75" y="42.5" width="6.375" height="4.25"></rect>
                    <rect id="Rectangle-path" x="38.25" y="42.5" width="6.375" height="4.25"></rect>
                </g>
            </g>
        </g>
    </g>
</svg>