<?xml version="1.0" encoding="UTF-8"?>
<svg width="128px" height="128px" viewBox="0 0 128 128" version="1.1" xmlns="http://www.w3.org/2000/svg" xmlns:xlink="http://www.w3.org/1999/xlink">
    <!-- Generator: Sketch 46.2 (44496) - http://www.bohemiancoding.com/sketch -->
    <title>box</title>
    <desc>Created with Sketch.</desc>
    <defs></defs>
    <g id="Page-1" stroke="none" stroke-width="1" fill="none" fill-rule="evenodd">
        <g id="box" fill-rule="nonzero" fill="#000000">
            <g id="Group" transform="translate(14.000000, 14.000000)">
                <g id="Shape">
                    <polygon points="66.7347905 7.797 21.8334941 28.7565714 18.6131143 30.245 18.6131143 30.3435714 0.818872475 21.4228571 48.7926741 0.414"></polygon>
                    <polygon points="99.9375641 21.4228571 48.7926741 45.4578571 25.5500754 33.8132857 25.5500754 33.7114286 70.1523364 12.4035714 74.3651191 10.9184286"></polygon>
                </g>
                <path d="M48.8441468,51.1803627 L25.6983059,39.516078 L25.6983059,50.2064131 L18.7696516,45.9738592 L18.7696516,36.03297 L1,27.069332 L1,75.849351 L48.9163545,100 L100,75.849351 L100,27 L48.8441468,51.1803627 Z M17.0858999,77.7411243 L4.35765673,71.8379992 L4.35765673,70.5272941 L17.0858999,76.4271177 L17.0858999,77.7411243 Z M17.0858999,73.802406 L4.35765673,67.8959794 L4.35765673,66.5885758 L17.0858999,72.4950025 L17.0858999,73.802406 Z M17.0858999,69.8669893 L4.35765673,63.9605626 L4.35765673,62.6498575 L17.0858999,68.5529827 L17.0858999,69.8669893 Z M41.2163909,87.546651 L28.8426218,81.5114649 L28.8426218,72.4586857 L41.2163909,78.4938718 L41.2163909,87.546651 Z M83.4513145,59.0644023 C83.0607367,59.2922075 82.634055,59.4011578 82.2073733,59.4011578 C81.357292,59.4011578 80.5236217,58.9587536 80.0674005,58.1597847 L78.4952425,55.4294243 L78.4952425,80.5507214 C78.4952425,81.9274569 77.3891523,83.0400706 76.0204887,83.0400706 C74.6518251,83.0400706 73.5457348,81.9274569 73.5457348,80.5507214 L73.5457348,55.4294243 L71.9735769,58.1597847 C71.5140735,58.9587536 70.6836853,59.4011578 69.8336041,59.4011578 C69.4069224,59.4011578 68.9835229,59.295509 68.5896628,59.0644023 C67.4113649,58.3743838 67.0043762,56.8523812 67.6903491,55.660531 L73.8772337,44.9173714 C73.903491,44.8744516 73.9461592,44.851341 73.9724165,44.8084211 C74.0314955,44.7159785 74.0971389,44.6334404 74.1693466,44.5509023 C74.2481186,44.4617611 74.3268906,44.379223 74.4187912,44.303288 C74.5008454,44.2306544 74.5796174,44.1679255 74.6682359,44.108498 C74.7109041,44.0820858 74.7338793,44.039166 74.7765474,44.0127538 C74.8224978,43.9863416 74.8750124,43.9863416 74.9209628,43.963231 C75.0194278,43.9137081 75.1146106,43.8773913 75.21964,43.8410746 C75.3279515,43.8047578 75.4329808,43.7717426 75.5445745,43.7486319 C75.6561682,43.7255212 75.7611975,43.7123151 75.8727912,43.7057121 C75.9220237,43.7024106 75.9646918,43.6759984 76.0172065,43.6759984 C76.0697212,43.6759984 76.1123894,43.7024106 76.1616219,43.7057121 C76.2732155,43.7123151 76.3782449,43.7255212 76.4865564,43.7486319 C76.5981501,43.7717426 76.6998972,43.8014563 76.8082087,43.8377731 C76.9132381,43.8740898 77.0149852,43.9137081 77.1134503,43.963231 C77.1594006,43.9863416 77.2119153,43.9863416 77.2578656,44.0127538 C77.3038159,44.039166 77.3267911,44.0853874 77.3694593,44.1117996 C77.4547956,44.1679255 77.5302854,44.2306544 77.6123396,44.2999864 C77.7042403,44.379223 77.7862945,44.4617611 77.8650665,44.5542038 C77.9372741,44.6400434 78.0029175,44.7225815 78.0619965,44.8150242 C78.0882538,44.8546425 78.130922,44.8777532 78.1571793,44.920673 L84.3440639,55.6638325 C85.0366011,56.8523812 84.6296124,58.3743838 83.4513145,59.0644023 Z" id="Shape"></path>
            </g>
        </g>
    </g>
</svg>