<?xml version="1.0" encoding="UTF-8"?>
<svg width="128px" height="128px" viewBox="0 0 128 128" version="1.1" xmlns="http://www.w3.org/2000/svg" xmlns:xlink="http://www.w3.org/1999/xlink">
    <!-- Generator: Sketch 46.2 (44496) - http://www.bohemiancoding.com/sketch -->
    <title>cube-white</title>
    <desc>Created with Sketch.</desc>
    <defs></defs>
    <g id="Page-1" stroke="none" stroke-width="1" fill="none" fill-rule="evenodd">
        <g id="cube-white" fill-rule="nonzero" fill="#EEEEEE">
            <g id="noun_571723_cc-copy" transform="translate(10.000000, 14.000000)">
                <path d="M106.511508,42.7610041 L85.8919486,30.9291883 L85.8919486,16.3810326 C85.8919486,15.3247733 85.3248483,14.3489093 84.4040634,13.820352 L70.2394648,5.69356918 C69.3186799,5.16586712 68.1853399,5.16586712 67.2645549,5.69356918 L55.4492488,12.4741558 L34.4002767,0.396022063 C33.7152816,0.00345278214 32.9029255,-0.102600793 32.1413417,0.10180892 C31.3771762,0.306218633 30.7274635,0.803130947 30.3341936,1.48392648 L0.396634764,53.2688607 C-0.42174514,54.6826233 0.0670453813,56.4872446 1.48780797,57.3014624 L23.2871768,69.8106526 L23.2871768,81.4021372 C23.2871768,82.4583966 23.854277,83.4342606 24.775062,83.9619626 L38.9388,92.0896007 C39.859585,92.6173028 40.9937855,92.6173028 41.9128494,92.0896007 L51.1542603,86.786922 L73.4914708,99.6040096 C73.9484211,99.8657225 74.4613069,100 74.979356,100 C75.23752,100 75.495684,99.9666444 75.7495453,99.8999333 C76.5111291,99.6972341 77.1617024,99.2020324 77.5558328,98.5229474 L107.601821,46.7995926 C108.421922,45.3849748 107.934852,43.5777877 106.511508,42.7610041 Z M85.4126241,35.3800174 L93.446688,39.9899268 L84.5383086,55.3240764 L76.5042447,50.7150222 L85.4126241,35.3800174 Z M27.4048927,48.2355923 L27.4048927,34.6051421 L39.2812976,41.4199395 L39.2812976,54.9126911 L39.2227804,55.0144683 L27.4048927,48.2355923 Z M38.082556,56.987578 L32.165437,67.2226032 L27.4048927,64.4908684 L27.4048927,50.8604182 L38.082556,56.987578 Z M28.5494198,32.6363088 L40.4258247,25.8215113 L52.1955218,32.5747293 L52.0905351,32.7577572 L40.4258247,39.4511062 L28.5494198,32.6363088 Z M51.2188013,38.8301797 L63.3636968,45.7989259 L54.4570385,61.1330754 L42.3439833,54.1822899 L51.2188013,38.8301797 Z M73.4157427,28.495943 L64.5073633,43.8309478 L52.3581651,36.8596358 L61.2329831,21.5075256 L73.4157427,28.495943 Z M65.3455358,46.936436 L73.3804602,51.5472007 L64.4720809,66.8796397 L56.438017,62.2697302 L65.3455358,46.936436 Z M75.3605782,52.6838555 L83.3937815,57.2937649 L74.4871233,72.6270592 L66.4539199,68.0171498 L75.3605782,52.6838555 Z M74.5232662,49.5775121 L66.4892023,44.9676027 L75.3975817,29.6334531 L83.4316456,34.2433626 L74.5232662,49.5775121 Z M68.7533007,9.5662352 L80.6305661,16.3810326 L68.7541612,23.1958301 L56.8768958,16.3810326 L68.7533007,9.5662352 Z M59.2520047,20.3691602 L53.3357462,30.6033302 L42.7131578,24.5086707 L54.5895627,17.6938733 L59.2520047,20.3691602 Z M33.3340594,4.51072971 L45.5150978,11.5000024 L37.8682799,24.6626195 L35.3442965,26.1105929 L24.4575203,19.8636952 L33.3340594,4.51072971 Z M25.1175596,46.6139989 L16.6127766,61.2545238 L4.53500381,54.3251201 L13.303114,39.1594589 L25.1175596,45.938335 L25.1175596,46.6139989 Z M25.6545407,31.6784055 C25.595163,31.7151822 25.5392275,31.7579457 25.4884552,31.8058409 C25.4703837,31.822091 25.4523122,31.8366306 25.4351013,31.853736 C25.3740025,31.9178814 25.3172064,31.9880136 25.2707369,32.0675537 C25.2242674,32.1470939 25.1915666,32.2309105 25.1666107,32.3164375 C25.1597264,32.3395298 25.1562842,32.3634774 25.1502604,32.3865697 C25.1347705,32.4549914 25.126165,32.5225578 25.1235834,32.5918347 C25.1227229,32.6072296 25.1175596,32.6217692 25.1175596,32.6363088 L25.1175596,43.3126537 L14.4433384,37.1880598 L23.3181564,21.8359496 L33.0569634,27.4242888 L25.688102,31.6518921 C25.6769149,31.6587343 25.6674489,31.6707081 25.6545407,31.6784055 Z M39.2812976,87.5600867 L27.4048927,80.7452893 L27.4048927,67.1165497 L31.0260732,69.1940023 L29.8832672,71.1713883 C29.5700282,71.7153406 29.7576273,72.4089651 30.3032139,72.7228495 L39.2812976,77.8741453 L39.2812976,87.5600867 L39.2812976,87.5600867 Z M32.4356486,71.3202055 L41.2028983,56.1545443 L53.3125114,63.102764 L44.5134215,78.2496092 L32.4356486,71.3202055 Z M46.4952605,79.386264 L55.2934899,64.2394188 L63.3275538,68.8493282 L54.5293244,83.9970287 L46.4952605,79.386264 Z M56.5103029,85.1336836 L65.3093928,69.9859831 L73.3434567,74.5967478 L64.5435063,89.743593 L56.5103029,85.1336836 Z M74.5602698,95.4910125 L66.5244847,90.8802478 L75.3244352,75.7334026 L83.3584991,80.3441673 L74.5602698,95.4910125 Z M84.5021657,78.3744787 L76.4672412,73.763714 L85.3756206,58.4295645 L93.4096845,63.0403292 L84.5021657,78.3744787 Z M94.5542116,61.0706406 L86.5201477,56.4607312 L95.428527,41.1265817 L103.462591,45.7364911 L94.5542116,61.0706406 Z" id="Shape"></path>
            </g>
        </g>
    </g>
</svg>