<?xml version="1.0" encoding="UTF-8"?>
<svg width="256px" height="256px" viewBox="0 0 256 256" version="1.1" xmlns="http://www.w3.org/2000/svg" xmlns:xlink="http://www.w3.org/1999/xlink">
    <!-- Generator: Sketch 49.1 (51147) - http://www.bohemiancoding.com/sketch -->
    <title>executor</title>
    <desc>Created with Sketch.</desc>
    <defs>
        <path d="M0.031,0.024 C0.021,0.024 0.01,0.023 2.77555756e-16,0.022 L0.006,-1.73472348e-18 L0.031,0.024 Z" id="path-1"></path>
    </defs>
    <g id="executor" stroke="none" stroke-width="1" fill="none" fill-rule="evenodd">
        <g id="Executor" transform="translate(0.000000, 34.000000)">
            <polygon id="Fill-474" fill="#D8C6A5" points="109 101 129 101 129 78 109 78"></polygon>
            <path d="M150.809754,51.4943245 C150.385031,51.4943245 149.979614,51.7082262 149.60959,52.0853269 L149.522715,51.6923816 C149.466407,51.4436219 149.414926,51.1916933 149.350574,50.944518 C149.287831,50.6957583 149.217044,50.4485831 149.146257,50.2029923 C149.081905,49.9716616 149.022379,49.7434998 148.953201,49.5121691 C148.87437,49.2554872 148.787495,49.0035585 148.702228,48.7500455 C148.63305,48.5361438 148.56548,48.3206577 148.491476,48.1099249 C148.394948,47.8469051 148.290376,47.5838853 148.187413,47.3224499 C148.113408,47.1291462 148.041012,46.934258 147.960572,46.7441232 C147.851174,46.4731811 147.727297,46.2069924 147.608246,45.9376347 C147.529415,45.7601756 147.45541,45.581132 147.373361,45.4084262 C147.243049,45.1327307 147.10791,44.8633731 146.971162,44.5940154 C146.885895,44.4308164 146.807064,44.2660329 146.720189,44.1044183 C146.575397,43.8271384 146.414518,43.5514429 146.258464,43.2789163 C146.179633,43.1331463 146.100802,42.9889608 146.015536,42.8463596 C145.846612,42.5611574 145.669644,42.282293 145.491068,42.0018442 L145.251357,41.626328 C145.061519,41.3379568 144.865245,41.057508 144.667363,40.7754747 L144.434087,40.4459077 C144.224944,40.1559521 144.009365,39.8739188 143.790568,39.59347 L143.568554,39.3066833 C143.335278,39.0167277 143.098785,38.7394478 142.857465,38.4589989 L142.646713,38.2134081 C142.39574,37.9266215 142.135115,37.6461726 141.87449,37.3720616 L141.681434,37.1644978 C141.40633,36.8840489 141.129616,36.6099379 140.844859,36.3374114 L140.666282,36.1631211 C140.368655,35.8874256 140.069418,35.6164835 139.760529,35.3502948 L139.607693,35.215616 C139.29076,34.9446739 138.965783,34.6800696 138.635979,34.4218032 L138.508884,34.3156446 C138.167819,34.0542092 137.823536,33.7975272 137.474427,33.5487675 L137.36342,33.4679602 C137.004658,33.2128627 136.639461,32.9688563 136.267829,32.7327723 L136.182563,32.6757318 C135.802886,32.4348944 135.416775,32.2035637 135.025837,31.9769864 L134.961485,31.9389595 C134.560894,31.7107977 134.158695,31.4921427 133.748451,31.2829944 L133.705014,31.2576431 C133.288335,31.0469103 132.865221,30.8440998 132.43889,30.6492117 L132.41154,30.6381205 C131.977165,30.4416478 131.54118,30.2594353 131.10037,30.0835606 L131.084282,30.0772228 C128.389545,29.0156368 125.508188,28.3374893 122.502953,28.1029897 L122.499736,28.1029897 C121.9994,28.0617938 121.499064,28.038027 120.993901,28.0253513 L120.987466,28.0253513 C120.715579,28.0158446 120.443692,28 120.168588,28 C105.859939,28 93.8888729,38.1072495 90.8192864,51.6527702 C90.614969,51.5529494 90.4074341,51.4943245 90.1918552,51.4943245 C88.4302214,51.4943245 87,55.0751968 87,59.4942466 C87,63.9101275 88.4302214,67.4909998 90.1918552,67.4909998 C90.5618787,67.4909998 90.9190318,67.3246318 91.2488354,67.0299229 C94.8959804,79.7214213 106.455194,89 120.168588,89 C120.443692,89 120.715579,88.9873243 120.987466,88.9809865 L120.992292,88.9809865 C121.499064,88.965142 121.9994,88.9397906 122.499736,88.9033481 L122.502953,88.9001792 C125.508188,88.6656796 128.389545,87.9891166 131.084282,86.9259461 L131.10037,86.9196083 C131.54118,86.7437336 131.977165,86.5599366 132.41154,86.3650484 L132.43889,86.3523728 C132.865221,86.1590691 133.288335,85.9562586 133.705014,85.7439414 L133.748451,85.721759 C134.158695,85.5110263 134.560894,85.2923712 134.961485,85.0657939 L135.025837,85.0261825 C135.416775,84.8011896 135.802886,84.5682745 136.182563,84.3258526 L136.267829,84.2735655 C136.639461,84.0327281 137.004658,83.7871373 137.36342,83.5367932 L137.474427,83.452817 C137.823536,83.2056417 138.167819,82.9505442 138.508884,82.6859399 L138.635979,82.5845347 C138.965783,82.3230993 139.29076,82.058495 139.607693,81.7875529 L139.760529,81.6528741 C140.069418,81.3866854 140.368655,81.1173277 140.666282,80.8384633 L140.844859,80.667342 C141.129616,80.3963999 141.40633,80.1207044 141.681434,79.8386711 L141.87449,79.6311073 C142.135115,79.3538274 142.39574,79.0781319 142.646713,78.7913452 L142.857465,78.54417 C143.098785,78.2653056 143.335278,77.9848567 143.568554,77.6980701 L143.790568,77.409699 C144.009365,77.1276657 144.224944,76.8456324 144.434087,76.5588457 L144.667363,76.2276942 C144.865245,75.9456609 145.061519,75.6652121 145.251357,75.3784254 L145.491068,75.0013247 C145.669644,74.7240448 145.846612,74.4420115 146.015536,74.1568093 L146.258464,73.7274215 C146.414518,73.4533105 146.575397,73.1791995 146.720189,72.8955817 C146.807064,72.737136 146.885895,72.5691836 146.971162,72.4091535 C147.10791,72.1397958 147.243049,71.8704382 147.373361,71.5963272 C147.45541,71.4236214 147.529415,71.2445778 147.608246,71.0655342 C147.727297,70.7993454 147.851174,70.5315722 147.960572,70.2590457 C148.041012,70.0689109 148.113408,69.8740227 148.187413,69.6823034 C148.290376,69.4208681 148.394948,69.1594327 148.491476,68.8916595 C148.56548,68.6809268 148.63305,68.4686096 148.702228,68.2562924 C148.787495,67.9996104 148.87437,67.7476818 148.953201,67.4878309 C149.022379,67.2612535 149.081905,67.0283384 149.146257,66.7985922 L149.241176,66.4547651 C149.706118,67.1123146 150.23863,67.4909998 150.809754,67.4909998 C152.569779,67.4909998 154,63.9101275 154,59.4942466 C154,55.0751968 152.569779,51.4943245 150.809754,51.4943245" id="Fill-475" fill="#F7E0B8"></path>
            <path d="M188,166.756378 C188,140.723872 177.843649,114.519237 163.826205,106.255476 C155.516463,100.802625 140.658067,97 119.00871,97 C97.462295,97 81.4256171,100.766304 73.0556939,106.178097 C58.944811,114.350267 50,140.643335 50,166.756378 L50,174 L75.0543397,174 L75.0543397,166.756378 C75.0543397,149.567186 80.6210909,138.860459 84.0989247,133.475513 L84.0989247,174 L153.604921,174 L153.604921,134.942555 C157.435923,140.70808 162.944077,151.010541 162.944077,166.756378 L162.944077,174 L188,174 L188,166.756378" id="Fill-476" fill="#D77339"></path>
            <path d="M149.403414,50.0150808 C149.309551,49.675274 149.185461,49.3496257 149.080462,49.0145384 C148.926145,48.5252794 148.779782,48.0344472 148.603193,47.5530541 C148.447285,47.1298687 148.256377,46.7224151 148.079788,46.3086688 C147.92388,45.9373983 147.777517,45.5582619 147.607291,45.1932841 C147.381384,44.7166106 147.12684,44.2603884 146.87866,43.7978735 C146.725934,43.5178475 146.587526,43.2268092 146.428437,42.9499295 C146.134121,42.4354996 145.806396,41.9462406 145.480262,41.4522621 C145.345036,41.2461755 145.219355,41.0322231 145.079356,40.8292828 C144.707086,40.2944016 144.307771,39.7846913 143.900502,39.2718347 L143.566413,38.837637 C143.116189,38.2901703 142.637329,37.7678746 142.152106,37.2550179 L141.908699,36.9875773 C141.375748,36.443257 140.822116,35.9241076 140.249393,35.4191168 L140.106213,35.2853965 C139.496899,34.7568081 138.866904,34.2565368 138.217818,33.7735706 L138.171682,33.7405338 C133.273311,30.1395248 127.262902,28 120.756134,28 C104.727849,28 91.663404,40.8717587 91,57 C92.8852127,54.8793534 94.0242949,51.8840187 95.8490536,49.8027015 C98.9019846,46.3228274 102.793318,43.8954107 106.196247,40.7883802 C108.552365,38.6441358 112.515289,38.287024 114.818907,40.7883802 C116.616621,42.7422697 118.967966,44.6222198 121.565901,46.0679722 L121.567492,46.0679722 C122.423394,46.5399262 123.299978,46.9631116 124.202017,47.3265162 L124.488378,47.4413584 C124.765194,47.5483346 125.04042,47.6521645 125.322008,47.7481285 L125.481098,47.7984702 C125.972685,47.9636541 126.469045,48.1052403 126.966996,48.2263752 C127.176994,48.2782901 127.391765,48.3223392 127.603354,48.3695346 C127.806989,48.4088641 128.007442,48.4544863 128.212668,48.4875231 C128.58971,48.5535966 128.969935,48.5992188 129.350159,48.635402 C129.51084,48.6479874 129.673111,48.6574265 129.835383,48.6668656 C130.151971,48.6857437 130.465378,48.6951828 130.780375,48.6920365 L131.146282,48.6920365 C131.566278,48.6763047 131.979912,48.6369752 132.390363,48.583487 L132.751497,48.5252794 C133.134903,48.4654985 133.516718,48.3836932 133.89376,48.286156 L134.060805,48.242107 C134.483983,48.1256917 134.902389,47.9730932 135.319204,47.8016166 L135.619884,47.6710426 C136.043062,47.4838342 136.459877,47.2761745 136.867147,47.0323316 C139.768942,45.2876749 143.47255,46.4486818 145.206628,49.1938809 C146.016394,50.4744494 148.025697,51.589834 150,52.568352 C149.837729,51.7062493 149.638866,50.8520126 149.403414,50.0150808" id="Fill-477" fill="#48301D"></path>
            <path d="M154,41 C153.961787,40.7586207 153.909245,40.5172414 153.829635,40.2695925 C153.291471,38.5846395 151.874412,33.5799373 151.874412,31.7554859 C151.874412,17.5329154 138.361405,6 121.686287,6 C105.014354,6 91.499755,17.5329154 91.499755,31.7554859 C91.499755,33.3526646 90.0301538,38.2507837 89,41 L154,41" id="Fill-478" fill="#DB944E"></path>
            <path d="M119.999184,16 C124.404366,16 128,12.4076303 128,8.00244823 C128,3.59400184 124.404366,0 119.999184,0 C115.594002,0 112,3.59400184 112,8.00244823 C112,12.4076303 115.594002,16 119.999184,16" id="Fill-479" fill="#DB944E"></path>
            <path d="M103,12.0102136 C105.598174,10.2488394 108.526636,8.88068709 111.684932,8 C111.888889,8.54758589 112,9.14391829 112,9.76624884 L112,31.1935933 C112,33.8356546 109.975647,36 107.500761,36 C105.022831,36 103,33.8356546 103,31.1935933 L103,12.0102136" id="Fill-480" fill="#B78044"></path>
            <path d="M128.400169,8 C131.505664,8.77266966 134.404227,10.0082959 137,11.6262242 L137,31.2284825 C137,33.8513654 134.976331,36 132.500761,36 C130.02519,36 128,33.8513654 128,31.2284825 L128,9.95667704 C128,9.26143565 128.144548,8.59684295 128.400169,8" id="Fill-481" fill="#B78044"></path>
            <path d="M155,43.5 C155,44.8795828 153.90357,46 152.551412,46 L88.4485882,46 C87.0948322,46 86,44.8795828 86,43.5 C86,42.1172566 87.0948322,41 88.4485882,41 L152.551412,41 C153.90357,41 155,42.1172566 155,43.5" id="Fill-482" fill="#B78044"></path>
            <path d="M107,97.5343806 L120.488793,141 L133,97.4607832 C133,97.4607832 131.047986,97 121.14894,97 C111.254632,97 107,97.5343806 107,97.5343806" id="Fill-483" fill="#FFFFFE"></path>
            <path d="M127,96.0007882 C127,98.2124138 124.085838,100 120.498473,100 C116.911109,100 114,98.2124138 114,96.0007882 C114,93.7891626 116.911109,92 120.498473,92 C124.085838,92 127,93.7891626 127,96.0007882" id="Fill-484" fill="#161C1A"></path>
            <polyline id="Fill-485" fill="#161C1A" points="119.052556 99 116 126.682691 120.582084 141 125 126.762685 123.394076 99.0767941 119.052556 99"></polyline>
            <polygon id="Fill-486" fill="#FFFFFE" points="130 150 148 150 148 140 130 140"></polygon>
            <g id="Group-489" transform="translate(132.000000, 97.000000)">
                <mask id="mask-2" fill="white">
                    <use xlink:href="#path-1"></use>
                </mask>
                <g id="Clip-488"></g>
                <polygon id="Fill-487" fill="#949995" mask="url(#mask-2)" points="2.77555756e-16 0.024 0.031 0.024 0.031 -1.73472348e-18 2.77555756e-16 -1.73472348e-18"></polygon>
            </g>
            <path d="M120.138587,140 L120,140 L124.330435,126.144657 L124.296196,125.559916 L132.805435,97 C132.821739,97.0015933 132.839674,97.0031866 132.855978,97.0031866 L144,107.947569 L120.138587,140" id="Fill-490" fill="#814F2E"></path>
            <polyline id="Fill-491" fill="#161C1A" points="120.004513 140 120 140 123.968409 126 124 126.56692 120.004513 140"></polyline>
            <path d="M107,97.012 L107.01,97 L107.013,97.011 C107.008,97.012 107.005,97.012 107,97.012" id="Fill-492" fill="#949995"></path>
            <path d="M122,140 L121.82439,140 L98,107.972645 L107.810732,97.001596 C107.819094,97.001596 107.824111,97.001596 107.832474,97 L117.395679,126.023643 L117.392334,126.0412 L122,140" id="Fill-493" fill="#814F2E"></path>
            <path d="M107,97.012 L107.01,97 L107.013,97.01 C107.008,97.011 107.004,97.011 107,97.012" id="Fill-494" fill="#949995"></path>
            <path d="M115.995283,126 L107.004717,97.0398133 L107,97.0222954 L107.017296,97.0031851 C107.023585,97.0015925 107.029874,97.0015925 107.037736,97 L116,125.944261 L115.995283,126" id="Fill-495" fill="#949A94"></path>
            <polyline id="Fill-496" fill="#161C1A" points="120 141 119.988418 141 116 127.073248 116.002895 127.055732 116.007239 127 120 141"></polyline>
            <polygon id="Fill-497" fill="#949995" points="118 174.029 120 174.029 120 174 118 174"></polygon>
            <polyline id="Fill-498" fill="#814F2E" points="120 174 118 174 118 140 118.774487 140 119.081245 140.451159 119.038724 140.310271 119.254366 140 120 140 120 174"></polyline>
            <polyline id="Fill-499" fill="#161C1A" points="120.059 140.191 120 140 120.115 140 120.059 140.191"></polyline>
            <polyline id="Fill-500" fill="#523926" points="120.002 140.196 120 140.191 120.059 140 120.144 140 120.002 140.196"></polyline>
            <polyline id="Fill-501" fill="#161C1A" points="120 140.191 120 140.191 120.056 140 120.059 140 120 140.191"></polyline>
            <polyline id="Fill-502" fill="#523926" points="120.202 140.285 120 140 120.105 140 120.169 140.203 120.174 140.196 120.202 140.285"></polyline>
            <polyline id="Fill-503" fill="#161C1A" points="120.064 140.203 120 140 120.008 140 120.067 140.191 120.064 140.203"></polyline>
            <polyline id="Fill-504" fill="#372D22" points="120 140.012 120 140.012 120.003 140 120.005 140.005 120 140.012"></polyline>
            <polyline id="Fill-505" fill="#161C1A" points="120 140.012 120.003 140 120 140.012"></polyline>
            <polyline id="Fill-506" fill="#343636" points="61 104 182 104 172.506505 166 69.5428755 166 61 104"></polyline>
            <polygon id="Fill-507" fill="#161C1A" points="71 173 175 173 175 165 71 165"></polygon>
            <polyline id="Fill-508" fill="#FFFFFE" points="112 131 135 131 133.195314 142 113.62337 142 112 131"></polyline>
            <polygon id="Fill-509" fill="#48301D" points="0 188 250 188 250 174 0 174"></polygon>
        </g>
    </g>
</svg>