<?xml version="1.0" encoding="UTF-8"?>
<svg width="128px" height="128px" viewBox="0 0 128 128" version="1.1" xmlns="http://www.w3.org/2000/svg" xmlns:xlink="http://www.w3.org/1999/xlink">
    <!-- Generator: Sketch 46.2 (44496) - http://www.bohemiancoding.com/sketch -->
    <title>phone-white</title>
    <desc>Created with Sketch.</desc>
    <defs></defs>
    <g id="Page-1" stroke="none" stroke-width="1" fill="none" fill-rule="evenodd">
        <g id="phone-white" fill-rule="nonzero" fill="#EEEEEE">
            <g id="noun_914827_cc" transform="translate(16.000000, 14.000000)">
                <path d="M66.5949367,0 L27.4050633,0 C22.7468354,0 19,3.76782077 19,8.45213849 L19,91.5478615 C19,96.2321792 22.7468354,100 27.4050633,100 L66.5949367,100 C71.2531646,100 75,96.2321792 75,91.5478615 L75,8.45213849 C74.8987342,3.76782077 71.1518987,0 66.5949367,0 Z M27.4050633,3.2586558 L66.5949367,3.2586558 C69.4303797,3.2586558 71.7594937,5.60081466 71.7594937,8.45213849 L71.7594937,13.1364562 L22.1392405,13.1364562 L22.1392405,8.45213849 C22.1392405,5.60081466 24.4683544,3.2586558 27.4050633,3.2586558 Z M71.7594937,16.395112 L71.7594937,82.586558 L22.1392405,82.586558 L22.1392405,16.395112 L71.7594937,16.395112 Z M66.5949367,96.8431772 L27.4050633,96.8431772 C24.5696203,96.8431772 22.2405063,94.5010183 22.2405063,91.6496945 L22.2405063,85.8452138 L71.8607595,85.8452138 L71.8607595,91.6496945 C71.7594937,94.3991853 69.4303797,96.8431772 66.5949367,96.8431772 Z" id="Shape"></path>
                <circle id="Oval" cx="47.5" cy="91.5" r="3.5"></circle>
                <circle id="Oval" cx="47.5" cy="91.5" r="3.5"></circle>
                <path d="M41.3448276,7 C40.6206897,7 40,7.69230769 40,8.5 C40,9.30769231 40.6206897,10 41.3448276,10 L53.6551724,10 C54.3793103,10 55,9.30769231 55,8.5 C55,7.57692308 54.3793103,7 53.6551724,7 L41.3448276,7 Z" id="Shape"></path>
                <path d="M96,28.5 L94.5,28.5 L94.5,27 C94.5,26.5 94.1,26 93.5,26 C93,26 92.5,26.4 92.5,27 L92.5,28.5 L91,28.5 C90.5,28.5 90,28.9 90,29.5 C90,30 90.4,30.5 91,30.5 L92.5,30.5 L92.5,32 C92.5,32.5 92.9,33 93.5,33 C94,33 94.5,32.6 94.5,32 L94.5,30.5 L96,30.5 C96.5,30.5 97,30.1 97,29.5 C96.9,28.9 96.5,28.5 96,28.5 Z" id="Shape"></path>
                <path d="M12.9,68.5 L11.4,68.5 L11.4,67 C11.4,66.5 11,66 10.4,66 C9.9,66 9.4,66.4 9.4,67 L9.4,68.5 L8,68.5 C7.5,68.5 7,68.9 7,69.5 C7,70.1 7.4,70.5 8,70.5 L9.5,70.5 L9.5,72 C9.5,72.5 9.9,73 10.5,73 C11,73 11.5,72.6 11.5,72 L11.5,70.5 L13,70.5 C13.5,70.5 14,70.1 14,69.5 C14,68.9 13.5,68.5 12.9,68.5 Z" id="Shape"></path>
                <path d="M10.4433962,18.0471698 L7.8490566,18.0471698 L7.8490566,15.4528302 C7.8490566,14.7264151 7.22641509,14 6.39622642,14 C5.66981132,14 4.94339623,14.6226415 4.94339623,15.4528302 L4.94339623,18.0471698 L2.45283019,18.0471698 C1.72641509,18.0471698 1,18.6698113 1,19.5 C1,20.2264151 1.62264151,20.9528302 2.45283019,20.9528302 L5.04716981,20.9528302 L5.04716981,23.5471698 C5.04716981,24.2735849 5.66981132,25 6.5,25 C7.22641509,25 7.95283019,24.3773585 7.95283019,23.5471698 L7.95283019,20.9528302 L10.5471698,20.9528302 C11.2735849,20.9528302 12,20.3301887 12,19.5 C11.8962264,18.6698113 11.2735849,18.0471698 10.4433962,18.0471698 Z" id="Shape"></path>
                <circle id="Oval" cx="2" cy="47" r="2"></circle>
                <circle id="Oval" cx="87" cy="84" r="2"></circle>
                <circle id="Oval" cx="85" cy="15" r="2"></circle>
                <path d="M64.9839572,40.7043011 C64.8823529,40.0913978 63.459893,34.4731183 58.0748663,32.4301075 C54.8235294,31.2043011 49.2352941,31 47,31 C44.7647059,31 39.1764706,31.2043011 35.9251337,32.4301075 C30.3368984,34.5752688 29.1176471,40.5 29.0160428,40.7043011 C28.3048128,43.4623656 28,46.6290323 28,50 C28,53.3709677 28.3048128,56.4354839 29.0160428,59.1935484 C29.1176471,59.3978495 30.3368984,65.4247312 35.9251337,67.5698925 C39.1764706,68.7956989 44.7647059,69 47,69 C49.2352941,69 54.8235294,68.7956989 58.0748663,67.5698925 C63.6631016,65.4247312 64.8823529,59.5 64.9839572,59.2956989 C65.6951872,56.5376344 66,53.3709677 66,50 C66,46.6290323 65.6951872,43.5645161 64.9839572,40.7043011 Z M36.3315508,60.7258065 C36.3315508,60.7258065 38.1604278,52.9623656 41.1069519,55.9247312 C44.0534759,58.8870968 36.3315508,60.7258065 36.3315508,60.7258065 Z M57.7700535,39.6827957 C57.6684492,48.3655914 53.197861,52.5537634 49.540107,54.4946237 L50.3529412,57.8655914 L48.6256684,59.6021505 L44.5614973,55.516129 C44.5614973,56.2311828 44.2566845,56.9462366 43.6470588,57.5591398 L39.3796791,53.2688172 C39.8877005,52.7580645 40.7005348,52.4516129 41.4117647,52.3494624 L37.3475936,48.2634409 L39.0748663,46.5268817 L42.4278075,47.344086 C44.3582888,43.7688172 48.5240642,39.172043 57.1604278,39.0698925 L57.6684492,39.0698925 L57.7700535,39.6827957 Z" id="Shape"></path>
                <circle id="Oval" cx="52" cy="44" r="2"></circle>
            </g>
        </g>
    </g>
</svg>